<svg width="68" height="44" viewBox="0 0 68 44" fill="none" xmlns="http://www.w3.org/2000/svg">
<path d="M24.0498 15.04L20.1498 29H16.8498L14.2298 19.06L11.4898 29L8.20977 29.02L4.44977 15.04H7.44977L9.90977 25.88L12.7498 15.04H15.8698L18.5498 25.82L21.0298 15.04H24.0498ZM36.178 23.22C36.178 23.62 36.1514 23.98 36.098 24.3H27.998C28.0647 25.1 28.3447 25.7267 28.838 26.18C29.3314 26.6333 29.938 26.86 30.658 26.86C31.698 26.86 32.438 26.4133 32.878 25.52H35.898C35.578 26.5867 34.9647 27.4667 34.058 28.16C33.1514 28.84 32.038 29.18 30.718 29.18C29.6514 29.18 28.6914 28.9467 27.838 28.48C26.998 28 26.338 27.3267 25.858 26.46C25.3914 25.5933 25.158 24.5933 25.158 23.46C25.158 22.3133 25.3914 21.3067 25.858 20.44C26.3247 19.5733 26.978 18.9067 27.818 18.44C28.658 17.9733 29.6247 17.74 30.718 17.74C31.7714 17.74 32.7114 17.9667 33.538 18.42C34.378 18.8733 35.0247 19.52 35.478 20.36C35.9447 21.1867 36.178 22.14 36.178 23.22ZM33.278 22.42C33.2647 21.7 33.0047 21.1267 32.498 20.7C31.9914 20.26 31.3714 20.04 30.638 20.04C29.9447 20.04 29.358 20.2533 28.878 20.68C28.4114 21.0933 28.1247 21.6733 28.018 22.42H33.278ZM49.8018 15.04V29H47.0018V23.06H41.0218V29H38.2218V15.04H41.0218V20.78H47.0018V15.04H49.8018ZM59.7577 29L56.6777 23.56H55.3577V29H52.5577V15.04H57.7977C58.8777 15.04 59.7977 15.2333 60.5577 15.62C61.3177 15.9933 61.8844 16.5067 62.2577 17.16C62.6444 17.8 62.8377 18.52 62.8377 19.32C62.8377 20.24 62.5711 21.0733 62.0377 21.82C61.5044 22.5533 60.7111 23.06 59.6577 23.34L62.9977 29H59.7577ZM55.3577 21.46H57.6977C58.4577 21.46 59.0244 21.28 59.3977 20.92C59.7711 20.5467 59.9577 20.0333 59.9577 19.38C59.9577 18.74 59.7711 18.2467 59.3977 17.9C59.0244 17.54 58.4577 17.36 57.6977 17.36H55.3577V21.46Z" fill="black"/>
</svg>
