<svg width="312" height="186" viewBox="0 0 312 186" fill="none" xmlns="http://www.w3.org/2000/svg">
<rect x="0.5" y="0.5" width="311" height="185" rx="9.5" fill="white"/>
<path d="M28.384 26.88V28.368H25.424V38H23.6V28.368H20.624V26.88H28.384ZM29.6233 33.552C29.6233 32.6667 29.8046 31.8827 30.1673 31.2C30.5406 30.5173 31.0419 29.9893 31.6713 29.616C32.3113 29.232 33.0153 29.04 33.7833 29.04C34.4766 29.04 35.0793 29.1787 35.5913 29.456C36.1139 29.7227 36.5299 30.0587 36.8393 30.464V29.184H38.6793V38H36.8393V36.688C36.5299 37.104 36.1086 37.4507 35.5753 37.728C35.0419 38.0053 34.4339 38.144 33.7513 38.144C32.9939 38.144 32.3006 37.952 31.6713 37.568C31.0419 37.1733 30.5406 36.6293 30.1673 35.936C29.8046 35.232 29.6233 34.4373 29.6233 33.552ZM36.8393 33.584C36.8393 32.976 36.7113 32.448 36.4553 32C36.2099 31.552 35.8846 31.2107 35.4793 30.976C35.0739 30.7413 34.6366 30.624 34.1673 30.624C33.6979 30.624 33.2606 30.7413 32.8553 30.976C32.4499 31.2 32.1193 31.536 31.8633 31.984C31.6179 32.4213 31.4953 32.944 31.4953 33.552C31.4953 34.16 31.6179 34.6933 31.8633 35.152C32.1193 35.6107 32.4499 35.9627 32.8553 36.208C33.2713 36.4427 33.7086 36.56 34.1673 36.56C34.6366 36.56 35.0739 36.4427 35.4793 36.208C35.8846 35.9733 36.2099 35.632 36.4553 35.184C36.7113 34.7253 36.8393 34.192 36.8393 33.584ZM42.899 26.16V38H41.075V26.16H42.899ZM53.3738 33.376C53.3738 33.7067 53.3524 34.0053 53.3098 34.272H46.5738C46.6271 34.976 46.8884 35.5413 47.3578 35.968C47.8271 36.3947 48.4031 36.608 49.0858 36.608C50.0671 36.608 50.7604 36.1973 51.1658 35.376H53.1337C52.8671 36.1867 52.3818 36.8533 51.6778 37.376C50.9844 37.888 50.1204 38.144 49.0858 38.144C48.2431 38.144 47.4858 37.9573 46.8138 37.584C46.1524 37.2 45.6298 36.6667 45.2458 35.984C44.8724 35.2907 44.6858 34.4907 44.6858 33.584C44.6858 32.6773 44.8671 31.8827 45.2298 31.2C45.6031 30.5067 46.1204 29.9733 46.7818 29.6C47.4538 29.2267 48.2218 29.04 49.0858 29.04C49.9178 29.04 50.6591 29.2213 51.3098 29.584C51.9604 29.9467 52.4671 30.4587 52.8298 31.12C53.1924 31.7707 53.3738 32.5227 53.3738 33.376ZM51.4698 32.8C51.4591 32.128 51.2191 31.5893 50.7498 31.184C50.2804 30.7787 49.6991 30.576 49.0058 30.576C48.3764 30.576 47.8378 30.7787 47.3898 31.184C46.9418 31.5787 46.6751 32.1173 46.5898 32.8H51.4698ZM59.6168 29.04C60.3101 29.04 60.9288 29.184 61.4728 29.472C62.0274 29.76 62.4594 30.1867 62.7688 30.752C63.0781 31.3173 63.2328 32 63.2328 32.8V38H61.4248V33.072C61.4248 32.2827 61.2274 31.68 60.8328 31.264C60.4381 30.8373 59.8994 30.624 59.2168 30.624C58.5341 30.624 57.9901 30.8373 57.5848 31.264C57.1901 31.68 56.9928 32.2827 56.9928 33.072V38H55.1688V29.184H56.9928V30.192C57.2914 29.8293 57.6701 29.5467 58.1288 29.344C58.5981 29.1413 59.0941 29.04 59.6168 29.04ZM67.6874 30.672V35.552C67.6874 35.8827 67.762 36.1227 67.9114 36.272C68.0714 36.4107 68.338 36.48 68.7114 36.48H69.8314V38H68.3914C67.57 38 66.9407 37.808 66.5034 37.424C66.066 37.04 65.8474 36.416 65.8474 35.552V30.672H64.8074V29.184H65.8474V26.992H67.6874V29.184H69.8314V30.672H67.6874ZM81.4448 38L78.8848 33.552H77.4928V38H75.6688V26.88H79.5088C80.3621 26.88 81.0821 27.0293 81.6688 27.328C82.2661 27.6267 82.7088 28.0267 82.9968 28.528C83.2954 29.0293 83.4448 29.5893 83.4448 30.208C83.4448 30.9333 83.2314 31.5947 82.8048 32.192C82.3888 32.7787 81.7434 33.1787 80.8688 33.392L83.6208 38H81.4448ZM77.4928 32.096H79.5088C80.1914 32.096 80.7034 31.9253 81.0448 31.584C81.3968 31.2427 81.5728 30.784 81.5728 30.208C81.5728 29.632 81.4021 29.184 81.0608 28.864C80.7194 28.5333 80.2021 28.368 79.5088 28.368H77.4928V32.096ZM93.8581 33.376C93.8581 33.7067 93.8368 34.0053 93.7941 34.272H87.0581C87.1115 34.976 87.3728 35.5413 87.8421 35.968C88.3115 36.3947 88.8875 36.608 89.5701 36.608C90.5515 36.608 91.2448 36.1973 91.6501 35.376H93.6181C93.3515 36.1867 92.8661 36.8533 92.1621 37.376C91.4688 37.888 90.6048 38.144 89.5701 38.144C88.7275 38.144 87.9701 37.9573 87.2981 37.584C86.6368 37.2 86.1141 36.6667 85.7301 35.984C85.3568 35.2907 85.1701 34.4907 85.1701 33.584C85.1701 32.6773 85.3515 31.8827 85.7141 31.2C86.0875 30.5067 86.6048 29.9733 87.2661 29.6C87.9381 29.2267 88.7061 29.04 89.5701 29.04C90.4021 29.04 91.1435 29.2213 91.7941 29.584C92.4448 29.9467 92.9515 30.4587 93.3141 31.12C93.6768 31.7707 93.8581 32.5227 93.8581 33.376ZM91.9541 32.8C91.9435 32.128 91.7035 31.5893 91.2341 31.184C90.7648 30.7787 90.1835 30.576 89.4901 30.576C88.8608 30.576 88.3221 30.7787 87.8741 31.184C87.4261 31.5787 87.1595 32.1173 87.0741 32.8H91.9541ZM95.0451 33.552C95.0451 32.6667 95.2265 31.8827 95.5891 31.2C95.9625 30.5173 96.4638 29.9893 97.0931 29.616C97.7331 29.232 98.4425 29.04 99.2211 29.04C99.9038 29.04 100.506 29.1787 101.029 29.456C101.562 29.7333 101.973 30.0693 102.261 30.464V29.184H104.101V42.192H102.261V36.72C101.973 37.1147 101.557 37.4507 101.013 37.728C100.469 38.0053 99.8505 38.144 99.1571 38.144C98.3998 38.144 97.7065 37.952 97.0771 37.568C96.4585 37.1733 95.9625 36.6293 95.5891 35.936C95.2265 35.232 95.0451 34.4373 95.0451 33.552ZM102.261 33.584C102.261 32.976 102.133 32.448 101.877 32C101.632 31.552 101.306 31.2107 100.901 30.976C100.496 30.7413 100.058 30.624 99.5891 30.624C99.1198 30.624 98.6825 30.7413 98.2771 30.976C97.8718 31.2 97.5411 31.536 97.2851 31.984C97.0398 32.4213 96.9171 32.944 96.9171 33.552C96.9171 34.16 97.0398 34.6933 97.2851 35.152C97.5411 35.6107 97.8718 35.9627 98.2771 36.208C98.6931 36.4427 99.1305 36.56 99.5891 36.56C100.058 36.56 100.496 36.4427 100.901 36.208C101.306 35.9733 101.632 35.632 101.877 35.184C102.133 34.7253 102.261 34.192 102.261 33.584ZM114.481 29.184V38H112.657V36.96C112.369 37.3227 111.99 37.6107 111.521 37.824C111.062 38.0267 110.572 38.128 110.049 38.128C109.356 38.128 108.732 37.984 108.177 37.696C107.633 37.408 107.201 36.9813 106.881 36.416C106.572 35.8507 106.417 35.168 106.417 34.368V29.184H108.225V34.096C108.225 34.8853 108.422 35.4933 108.817 35.92C109.212 36.336 109.75 36.544 110.433 36.544C111.116 36.544 111.654 36.336 112.049 35.92C112.454 35.4933 112.657 34.8853 112.657 34.096V29.184H114.481ZM124.968 33.376C124.968 33.7067 124.946 34.0053 124.904 34.272H118.168C118.221 34.976 118.482 35.5413 118.952 35.968C119.421 36.3947 119.997 36.608 120.68 36.608C121.661 36.608 122.354 36.1973 122.76 35.376H124.727C124.461 36.1867 123.976 36.8533 123.272 37.376C122.578 37.888 121.714 38.144 120.68 38.144C119.837 38.144 119.08 37.9573 118.408 37.584C117.746 37.2 117.224 36.6667 116.84 35.984C116.466 35.2907 116.28 34.4907 116.28 33.584C116.28 32.6773 116.461 31.8827 116.824 31.2C117.197 30.5067 117.714 29.9733 118.376 29.6C119.048 29.2267 119.816 29.04 120.68 29.04C121.512 29.04 122.253 29.2213 122.904 29.584C123.554 29.9467 124.061 30.4587 124.424 31.12C124.786 31.7707 124.968 32.5227 124.968 33.376ZM123.064 32.8C123.053 32.128 122.813 31.5893 122.344 31.184C121.874 30.7787 121.293 30.576 120.6 30.576C119.97 30.576 119.432 30.7787 118.984 31.184C118.536 31.5787 118.269 32.1173 118.184 32.8H123.064ZM129.963 38.144C129.269 38.144 128.645 38.0213 128.091 37.776C127.547 37.52 127.115 37.1787 126.795 36.752C126.475 36.3147 126.304 35.8293 126.283 35.296H128.171C128.203 35.6693 128.379 35.984 128.699 36.24C129.029 36.4853 129.44 36.608 129.931 36.608C130.443 36.608 130.837 36.512 131.115 36.32C131.403 36.1173 131.547 35.8613 131.547 35.552C131.547 35.2213 131.387 34.976 131.067 34.816C130.757 34.656 130.261 34.48 129.579 34.288C128.917 34.1067 128.379 33.9307 127.963 33.76C127.547 33.5893 127.184 33.328 126.875 32.976C126.576 32.624 126.427 32.16 126.427 31.584C126.427 31.1147 126.565 30.688 126.843 30.304C127.12 29.9093 127.515 29.6 128.027 29.376C128.549 29.152 129.147 29.04 129.819 29.04C130.821 29.04 131.627 29.296 132.235 29.808C132.853 30.3093 133.184 30.9973 133.227 31.872H131.403C131.371 31.4773 131.211 31.1627 130.923 30.928C130.635 30.6933 130.245 30.576 129.755 30.576C129.275 30.576 128.907 30.6667 128.651 30.848C128.395 31.0293 128.267 31.2693 128.267 31.568C128.267 31.8027 128.352 32 128.523 32.16C128.693 32.32 128.901 32.448 129.147 32.544C129.392 32.6293 129.755 32.7413 130.235 32.88C130.875 33.0507 131.397 33.2267 131.803 33.408C132.219 33.5787 132.576 33.8347 132.875 34.176C133.173 34.5173 133.328 34.9707 133.339 35.536C133.339 36.0373 133.2 36.4853 132.923 36.88C132.645 37.2747 132.251 37.584 131.739 37.808C131.237 38.032 130.645 38.144 129.963 38.144ZM137.437 30.672V35.552C137.437 35.8827 137.512 36.1227 137.661 36.272C137.821 36.4107 138.088 36.48 138.461 36.48H139.581V38H138.141C137.32 38 136.691 37.808 136.253 37.424C135.816 37.04 135.597 36.416 135.597 35.552V30.672H134.557V29.184H135.597V26.992H137.437V29.184H139.581V30.672H137.437Z" fill="#161E54"/>
<path d="M28.384 26.88V28.368H25.424V38H23.6V28.368H20.624V26.88H28.384ZM29.6233 33.552C29.6233 32.6667 29.8046 31.8827 30.1673 31.2C30.5406 30.5173 31.0419 29.9893 31.6713 29.616C32.3113 29.232 33.0153 29.04 33.7833 29.04C34.4766 29.04 35.0793 29.1787 35.5913 29.456C36.1139 29.7227 36.5299 30.0587 36.8393 30.464V29.184H38.6793V38H36.8393V36.688C36.5299 37.104 36.1086 37.4507 35.5753 37.728C35.0419 38.0053 34.4339 38.144 33.7513 38.144C32.9939 38.144 32.3006 37.952 31.6713 37.568C31.0419 37.1733 30.5406 36.6293 30.1673 35.936C29.8046 35.232 29.6233 34.4373 29.6233 33.552ZM36.8393 33.584C36.8393 32.976 36.7113 32.448 36.4553 32C36.2099 31.552 35.8846 31.2107 35.4793 30.976C35.0739 30.7413 34.6366 30.624 34.1673 30.624C33.6979 30.624 33.2606 30.7413 32.8553 30.976C32.4499 31.2 32.1193 31.536 31.8633 31.984C31.6179 32.4213 31.4953 32.944 31.4953 33.552C31.4953 34.16 31.6179 34.6933 31.8633 35.152C32.1193 35.6107 32.4499 35.9627 32.8553 36.208C33.2713 36.4427 33.7086 36.56 34.1673 36.56C34.6366 36.56 35.0739 36.4427 35.4793 36.208C35.8846 35.9733 36.2099 35.632 36.4553 35.184C36.7113 34.7253 36.8393 34.192 36.8393 33.584ZM42.899 26.16V38H41.075V26.16H42.899ZM53.3738 33.376C53.3738 33.7067 53.3524 34.0053 53.3098 34.272H46.5738C46.6271 34.976 46.8884 35.5413 47.3578 35.968C47.8271 36.3947 48.4031 36.608 49.0858 36.608C50.0671 36.608 50.7604 36.1973 51.1658 35.376H53.1337C52.8671 36.1867 52.3818 36.8533 51.6778 37.376C50.9844 37.888 50.1204 38.144 49.0858 38.144C48.2431 38.144 47.4858 37.9573 46.8138 37.584C46.1524 37.2 45.6298 36.6667 45.2458 35.984C44.8724 35.2907 44.6858 34.4907 44.6858 33.584C44.6858 32.6773 44.8671 31.8827 45.2298 31.2C45.6031 30.5067 46.1204 29.9733 46.7818 29.6C47.4538 29.2267 48.2218 29.04 49.0858 29.04C49.9178 29.04 50.6591 29.2213 51.3098 29.584C51.9604 29.9467 52.4671 30.4587 52.8298 31.12C53.1924 31.7707 53.3738 32.5227 53.3738 33.376ZM51.4698 32.8C51.4591 32.128 51.2191 31.5893 50.7498 31.184C50.2804 30.7787 49.6991 30.576 49.0058 30.576C48.3764 30.576 47.8378 30.7787 47.3898 31.184C46.9418 31.5787 46.6751 32.1173 46.5898 32.8H51.4698ZM59.6168 29.04C60.3101 29.04 60.9288 29.184 61.4728 29.472C62.0274 29.76 62.4594 30.1867 62.7688 30.752C63.0781 31.3173 63.2328 32 63.2328 32.8V38H61.4248V33.072C61.4248 32.2827 61.2274 31.68 60.8328 31.264C60.4381 30.8373 59.8994 30.624 59.2168 30.624C58.5341 30.624 57.9901 30.8373 57.5848 31.264C57.1901 31.68 56.9928 32.2827 56.9928 33.072V38H55.1688V29.184H56.9928V30.192C57.2914 29.8293 57.6701 29.5467 58.1288 29.344C58.5981 29.1413 59.0941 29.04 59.6168 29.04ZM67.6874 30.672V35.552C67.6874 35.8827 67.762 36.1227 67.9114 36.272C68.0714 36.4107 68.338 36.48 68.7114 36.48H69.8314V38H68.3914C67.57 38 66.9407 37.808 66.5034 37.424C66.066 37.04 65.8474 36.416 65.8474 35.552V30.672H64.8074V29.184H65.8474V26.992H67.6874V29.184H69.8314V30.672H67.6874ZM81.4448 38L78.8848 33.552H77.4928V38H75.6688V26.88H79.5088C80.3621 26.88 81.0821 27.0293 81.6688 27.328C82.2661 27.6267 82.7088 28.0267 82.9968 28.528C83.2954 29.0293 83.4448 29.5893 83.4448 30.208C83.4448 30.9333 83.2314 31.5947 82.8048 32.192C82.3888 32.7787 81.7434 33.1787 80.8688 33.392L83.6208 38H81.4448ZM77.4928 32.096H79.5088C80.1914 32.096 80.7034 31.9253 81.0448 31.584C81.3968 31.2427 81.5728 30.784 81.5728 30.208C81.5728 29.632 81.4021 29.184 81.0608 28.864C80.7194 28.5333 80.2021 28.368 79.5088 28.368H77.4928V32.096ZM93.8581 33.376C93.8581 33.7067 93.8368 34.0053 93.7941 34.272H87.0581C87.1115 34.976 87.3728 35.5413 87.8421 35.968C88.3115 36.3947 88.8875 36.608 89.5701 36.608C90.5515 36.608 91.2448 36.1973 91.6501 35.376H93.6181C93.3515 36.1867 92.8661 36.8533 92.1621 37.376C91.4688 37.888 90.6048 38.144 89.5701 38.144C88.7275 38.144 87.9701 37.9573 87.2981 37.584C86.6368 37.2 86.1141 36.6667 85.7301 35.984C85.3568 35.2907 85.1701 34.4907 85.1701 33.584C85.1701 32.6773 85.3515 31.8827 85.7141 31.2C86.0875 30.5067 86.6048 29.9733 87.2661 29.6C87.9381 29.2267 88.7061 29.04 89.5701 29.04C90.4021 29.04 91.1435 29.2213 91.7941 29.584C92.4448 29.9467 92.9515 30.4587 93.3141 31.12C93.6768 31.7707 93.8581 32.5227 93.8581 33.376ZM91.9541 32.8C91.9435 32.128 91.7035 31.5893 91.2341 31.184C90.7648 30.7787 90.1835 30.576 89.4901 30.576C88.8608 30.576 88.3221 30.7787 87.8741 31.184C87.4261 31.5787 87.1595 32.1173 87.0741 32.8H91.9541ZM95.0451 33.552C95.0451 32.6667 95.2265 31.8827 95.5891 31.2C95.9625 30.5173 96.4638 29.9893 97.0931 29.616C97.7331 29.232 98.4425 29.04 99.2211 29.04C99.9038 29.04 100.506 29.1787 101.029 29.456C101.562 29.7333 101.973 30.0693 102.261 30.464V29.184H104.101V42.192H102.261V36.72C101.973 37.1147 101.557 37.4507 101.013 37.728C100.469 38.0053 99.8505 38.144 99.1571 38.144C98.3998 38.144 97.7065 37.952 97.0771 37.568C96.4585 37.1733 95.9625 36.6293 95.5891 35.936C95.2265 35.232 95.0451 34.4373 95.0451 33.552ZM102.261 33.584C102.261 32.976 102.133 32.448 101.877 32C101.632 31.552 101.306 31.2107 100.901 30.976C100.496 30.7413 100.058 30.624 99.5891 30.624C99.1198 30.624 98.6825 30.7413 98.2771 30.976C97.8718 31.2 97.5411 31.536 97.2851 31.984C97.0398 32.4213 96.9171 32.944 96.9171 33.552C96.9171 34.16 97.0398 34.6933 97.2851 35.152C97.5411 35.6107 97.8718 35.9627 98.2771 36.208C98.6931 36.4427 99.1305 36.56 99.5891 36.56C100.058 36.56 100.496 36.4427 100.901 36.208C101.306 35.9733 101.632 35.632 101.877 35.184C102.133 34.7253 102.261 34.192 102.261 33.584ZM114.481 29.184V38H112.657V36.96C112.369 37.3227 111.99 37.6107 111.521 37.824C111.062 38.0267 110.572 38.128 110.049 38.128C109.356 38.128 108.732 37.984 108.177 37.696C107.633 37.408 107.201 36.9813 106.881 36.416C106.572 35.8507 106.417 35.168 106.417 34.368V29.184H108.225V34.096C108.225 34.8853 108.422 35.4933 108.817 35.92C109.212 36.336 109.75 36.544 110.433 36.544C111.116 36.544 111.654 36.336 112.049 35.92C112.454 35.4933 112.657 34.8853 112.657 34.096V29.184H114.481ZM124.968 33.376C124.968 33.7067 124.946 34.0053 124.904 34.272H118.168C118.221 34.976 118.482 35.5413 118.952 35.968C119.421 36.3947 119.997 36.608 120.68 36.608C121.661 36.608 122.354 36.1973 122.76 35.376H124.727C124.461 36.1867 123.976 36.8533 123.272 37.376C122.578 37.888 121.714 38.144 120.68 38.144C119.837 38.144 119.08 37.9573 118.408 37.584C117.746 37.2 117.224 36.6667 116.84 35.984C116.466 35.2907 116.28 34.4907 116.28 33.584C116.28 32.6773 116.461 31.8827 116.824 31.2C117.197 30.5067 117.714 29.9733 118.376 29.6C119.048 29.2267 119.816 29.04 120.68 29.04C121.512 29.04 122.253 29.2213 122.904 29.584C123.554 29.9467 124.061 30.4587 124.424 31.12C124.786 31.7707 124.968 32.5227 124.968 33.376ZM123.064 32.8C123.053 32.128 122.813 31.5893 122.344 31.184C121.874 30.7787 121.293 30.576 120.6 30.576C119.97 30.576 119.432 30.7787 118.984 31.184C118.536 31.5787 118.269 32.1173 118.184 32.8H123.064ZM129.963 38.144C129.269 38.144 128.645 38.0213 128.091 37.776C127.547 37.52 127.115 37.1787 126.795 36.752C126.475 36.3147 126.304 35.8293 126.283 35.296H128.171C128.203 35.6693 128.379 35.984 128.699 36.24C129.029 36.4853 129.44 36.608 129.931 36.608C130.443 36.608 130.837 36.512 131.115 36.32C131.403 36.1173 131.547 35.8613 131.547 35.552C131.547 35.2213 131.387 34.976 131.067 34.816C130.757 34.656 130.261 34.48 129.579 34.288C128.917 34.1067 128.379 33.9307 127.963 33.76C127.547 33.5893 127.184 33.328 126.875 32.976C126.576 32.624 126.427 32.16 126.427 31.584C126.427 31.1147 126.565 30.688 126.843 30.304C127.12 29.9093 127.515 29.6 128.027 29.376C128.549 29.152 129.147 29.04 129.819 29.04C130.821 29.04 131.627 29.296 132.235 29.808C132.853 30.3093 133.184 30.9973 133.227 31.872H131.403C131.371 31.4773 131.211 31.1627 130.923 30.928C130.635 30.6933 130.245 30.576 129.755 30.576C129.275 30.576 128.907 30.6667 128.651 30.848C128.395 31.0293 128.267 31.2693 128.267 31.568C128.267 31.8027 128.352 32 128.523 32.16C128.693 32.32 128.901 32.448 129.147 32.544C129.392 32.6293 129.755 32.7413 130.235 32.88C130.875 33.0507 131.397 33.2267 131.803 33.408C132.219 33.5787 132.576 33.8347 132.875 34.176C133.173 34.5173 133.328 34.9707 133.339 35.536C133.339 36.0373 133.2 36.4853 132.923 36.88C132.645 37.2747 132.251 37.584 131.739 37.808C131.237 38.032 130.645 38.144 129.963 38.144ZM137.437 30.672V35.552C137.437 35.8827 137.512 36.1227 137.661 36.272C137.821 36.4107 138.088 36.48 138.461 36.48H139.581V38H138.141C137.32 38 136.691 37.808 136.253 37.424C135.816 37.04 135.597 36.416 135.597 35.552V30.672H134.557V29.184H135.597V26.992H137.437V29.184H139.581V30.672H137.437Z" fill="black" fill-opacity="0.2"/>
<path d="M21.89 68.75V64.382H30.626V95H25.796V68.75H21.89ZM53.6676 71.48C53.3596 70.192 52.7996 69.226 51.9876 68.582C51.1756 67.938 50.0416 67.616 48.5856 67.616C46.3736 67.616 44.7216 68.47 43.6296 70.178C42.5376 71.858 41.9636 74.658 41.9076 78.578C42.6356 77.346 43.6996 76.394 45.0996 75.722C46.4996 75.05 48.0116 74.714 49.6356 74.714C51.4836 74.714 53.1076 75.12 54.5076 75.932C55.9356 76.716 57.0416 77.864 57.8256 79.376C58.6376 80.888 59.0436 82.694 59.0436 84.794C59.0436 86.754 58.6516 88.504 57.8676 90.044C57.1116 91.584 55.9776 92.802 54.4656 93.698C52.9536 94.566 51.1336 95 49.0056 95C46.1216 95 43.8536 94.37 42.2016 93.11C40.5776 91.822 39.4296 90.016 38.7576 87.692C38.1136 85.368 37.7916 82.47 37.7916 78.998C37.7916 68.75 41.4036 63.626 48.6276 63.626C51.4276 63.626 53.6256 64.382 55.2216 65.894C56.8456 67.406 57.7976 69.268 58.0776 71.48H53.6676ZM48.5856 78.746C46.8776 78.746 45.4216 79.264 44.2176 80.3C43.0416 81.308 42.4536 82.778 42.4536 84.71C42.4536 86.642 42.9996 88.182 44.0916 89.33C45.2116 90.45 46.7656 91.01 48.7536 91.01C50.5176 91.01 51.9036 90.464 52.9116 89.372C53.9476 88.28 54.4656 86.824 54.4656 85.004C54.4656 83.1 53.9616 81.588 52.9536 80.468C51.9736 79.32 50.5176 78.746 48.5856 78.746Z" fill="#161E54"/>
<path d="M21.89 68.75V64.382H30.626V95H25.796V68.75H21.89ZM53.6676 71.48C53.3596 70.192 52.7996 69.226 51.9876 68.582C51.1756 67.938 50.0416 67.616 48.5856 67.616C46.3736 67.616 44.7216 68.47 43.6296 70.178C42.5376 71.858 41.9636 74.658 41.9076 78.578C42.6356 77.346 43.6996 76.394 45.0996 75.722C46.4996 75.05 48.0116 74.714 49.6356 74.714C51.4836 74.714 53.1076 75.12 54.5076 75.932C55.9356 76.716 57.0416 77.864 57.8256 79.376C58.6376 80.888 59.0436 82.694 59.0436 84.794C59.0436 86.754 58.6516 88.504 57.8676 90.044C57.1116 91.584 55.9776 92.802 54.4656 93.698C52.9536 94.566 51.1336 95 49.0056 95C46.1216 95 43.8536 94.37 42.2016 93.11C40.5776 91.822 39.4296 90.016 38.7576 87.692C38.1136 85.368 37.7916 82.47 37.7916 78.998C37.7916 68.75 41.4036 63.626 48.6276 63.626C51.4276 63.626 53.6256 64.382 55.2216 65.894C56.8456 67.406 57.7976 69.268 58.0776 71.48H53.6676ZM48.5856 78.746C46.8776 78.746 45.4216 79.264 44.2176 80.3C43.0416 81.308 42.4536 82.778 42.4536 84.71C42.4536 86.642 42.9996 88.182 44.0916 89.33C45.2116 90.45 46.7656 91.01 48.7536 91.01C50.5176 91.01 51.9036 90.464 52.9116 89.372C53.9476 88.28 54.4656 86.824 54.4656 85.004C54.4656 83.1 53.9616 81.588 52.9536 80.468C51.9736 79.32 50.5176 78.746 48.5856 78.746Z" fill="black" fill-opacity="0.2"/>
<path d="M24.9629 130.463V131.383H24.7637C23.9199 131.398 23.248 131.648 22.748 132.133C22.248 132.617 21.959 133.299 21.8809 134.178C22.3301 133.662 22.9434 133.404 23.7207 133.404C24.4629 133.404 25.0547 133.666 25.4961 134.189C25.9414 134.713 26.1641 135.389 26.1641 136.217C26.1641 137.096 25.9238 137.799 25.4434 138.326C24.9668 138.854 24.3262 139.117 23.5215 139.117C22.7051 139.117 22.043 138.805 21.5352 138.18C21.0273 137.551 20.7734 136.742 20.7734 135.754V135.338C20.7734 133.768 21.1074 132.568 21.7754 131.74C22.4473 130.908 23.4453 130.482 24.7695 130.463H24.9629ZM23.5391 134.307C23.168 134.307 22.8262 134.418 22.5137 134.641C22.2012 134.863 21.9844 135.143 21.8633 135.479V135.877C21.8633 136.58 22.0215 137.146 22.3379 137.576C22.6543 138.006 23.0488 138.221 23.5215 138.221C24.0098 138.221 24.3926 138.041 24.6699 137.682C24.9512 137.322 25.0918 136.852 25.0918 136.27C25.0918 135.684 24.9492 135.211 24.6641 134.852C24.3828 134.488 24.0078 134.307 23.5391 134.307ZM32.1582 130.469L34.9473 137.43L37.7363 130.469H39.1953V139H38.0703V135.678L38.1758 132.092L35.375 139H34.5137L31.7188 132.109L31.8301 135.678V139H30.7051V130.469H32.1582ZM43.6426 139.117C42.7832 139.117 42.084 138.836 41.5449 138.273C41.0059 137.707 40.7363 136.951 40.7363 136.006V135.807C40.7363 135.178 40.8555 134.617 41.0938 134.125C41.3359 133.629 41.6719 133.242 42.1016 132.965C42.5352 132.684 43.0039 132.543 43.5078 132.543C44.332 132.543 44.9727 132.814 45.4297 133.357C45.8867 133.9 46.1152 134.678 46.1152 135.689V136.141H41.8203C41.8359 136.766 42.0176 137.271 42.3652 137.658C42.7168 138.041 43.1621 138.232 43.7012 138.232C44.084 138.232 44.4082 138.154 44.6738 137.998C44.9395 137.842 45.1719 137.635 45.3711 137.377L46.0332 137.893C45.502 138.709 44.7051 139.117 43.6426 139.117ZM43.5078 133.434C43.0703 133.434 42.7031 133.594 42.4062 133.914C42.1094 134.23 41.9258 134.676 41.8555 135.25H45.0312V135.168C45 134.617 44.8516 134.191 44.5859 133.891C44.3203 133.586 43.9609 133.434 43.5078 133.434ZM48.4004 132.66L48.4355 133.457C48.9199 132.848 49.5527 132.543 50.334 132.543C51.6738 132.543 52.3496 133.299 52.3613 134.811V139H51.2773V134.805C51.2734 134.348 51.168 134.01 50.9609 133.791C50.7578 133.572 50.4395 133.463 50.0059 133.463C49.6543 133.463 49.3457 133.557 49.0801 133.744C48.8145 133.932 48.6074 134.178 48.459 134.482V139H47.375V132.66H48.4004Z" fill="#686868"/>
<path d="M24.2715 161H23.1816V153.775L20.9961 154.578V153.594L24.1016 152.428H24.2715V161ZM32.7969 157.361C32.7969 158.631 32.5801 159.574 32.1465 160.191C31.7129 160.809 31.0352 161.117 30.1133 161.117C29.2031 161.117 28.5293 160.816 28.0918 160.215C27.6543 159.609 27.4277 158.707 27.4121 157.508V156.061C27.4121 154.807 27.6289 153.875 28.0625 153.266C28.4961 152.656 29.1758 152.352 30.1016 152.352C31.0195 152.352 31.6953 152.646 32.1289 153.236C32.5625 153.822 32.7852 154.729 32.7969 155.955V157.361ZM31.7129 155.879C31.7129 154.961 31.584 154.293 31.3262 153.875C31.0684 153.453 30.6602 153.242 30.1016 153.242C29.5469 153.242 29.1426 153.451 28.8887 153.869C28.6348 154.287 28.5039 154.93 28.4961 155.797V157.531C28.4961 158.453 28.6289 159.135 28.8945 159.576C29.1641 160.014 29.5703 160.232 30.1133 160.232C30.6484 160.232 31.0449 160.025 31.3027 159.611C31.5645 159.197 31.7012 158.545 31.7129 157.654V155.879ZM39.2832 158.311L39.4473 159.436L39.6875 158.422L41.375 152.469H42.3242L43.9707 158.422L44.2051 159.453L44.3867 158.305L45.7109 152.469H46.8418L44.7734 161H43.748L41.9902 154.783L41.8555 154.133L41.7207 154.783L39.8984 161H38.873L36.8105 152.469H37.9355L39.2832 158.311ZM47.4512 157.771C47.4512 157.15 47.5723 156.592 47.8145 156.096C48.0605 155.6 48.4004 155.217 48.834 154.947C49.2715 154.678 49.7695 154.543 50.3281 154.543C51.1914 154.543 51.8887 154.842 52.4199 155.439C52.9551 156.037 53.2227 156.832 53.2227 157.824V157.9C53.2227 158.518 53.1035 159.072 52.8652 159.564C52.6309 160.053 52.293 160.434 51.8516 160.707C51.4141 160.98 50.9102 161.117 50.3398 161.117C49.4805 161.117 48.7832 160.818 48.248 160.221C47.7168 159.623 47.4512 158.832 47.4512 157.848V157.771ZM48.541 157.9C48.541 158.604 48.7031 159.168 49.0273 159.594C49.3555 160.02 49.793 160.232 50.3398 160.232C50.8906 160.232 51.3281 160.018 51.6523 159.588C51.9766 159.154 52.1387 158.549 52.1387 157.771C52.1387 157.076 51.9727 156.514 51.6406 156.084C51.3125 155.65 50.875 155.434 50.3281 155.434C49.793 155.434 49.3613 155.646 49.0332 156.072C48.7051 156.498 48.541 157.107 48.541 157.9ZM55.6016 154.66L55.6309 155.363C56.0957 154.816 56.7227 154.543 57.5117 154.543C58.3984 154.543 59.002 154.883 59.3223 155.562C59.5332 155.258 59.8066 155.012 60.1426 154.824C60.4824 154.637 60.8828 154.543 61.3438 154.543C62.7344 154.543 63.4414 155.279 63.4648 156.752V161H62.3809V156.816C62.3809 156.363 62.2773 156.025 62.0703 155.803C61.8633 155.576 61.5156 155.463 61.0273 155.463C60.625 155.463 60.291 155.584 60.0254 155.826C59.7598 156.064 59.6055 156.387 59.5625 156.793V161H58.4727V156.846C58.4727 155.924 58.0215 155.463 57.1191 155.463C56.4082 155.463 55.9219 155.766 55.6602 156.371V161H54.5762V154.66H55.6016ZM67.7363 161.117C66.877 161.117 66.1777 160.836 65.6387 160.273C65.0996 159.707 64.8301 158.951 64.8301 158.006V157.807C64.8301 157.178 64.9492 156.617 65.1875 156.125C65.4297 155.629 65.7656 155.242 66.1953 154.965C66.6289 154.684 67.0977 154.543 67.6016 154.543C68.4258 154.543 69.0664 154.814 69.5234 155.357C69.9805 155.9 70.209 156.678 70.209 157.689V158.141H65.9141C65.9297 158.766 66.1113 159.271 66.459 159.658C66.8105 160.041 67.2559 160.232 67.7949 160.232C68.1777 160.232 68.502 160.154 68.7676 159.998C69.0332 159.842 69.2656 159.635 69.4648 159.377L70.127 159.893C69.5957 160.709 68.7988 161.117 67.7363 161.117ZM67.6016 155.434C67.1641 155.434 66.7969 155.594 66.5 155.914C66.2031 156.23 66.0195 156.676 65.9492 157.25H69.125V157.168C69.0938 156.617 68.9453 156.191 68.6797 155.891C68.4141 155.586 68.0547 155.434 67.6016 155.434ZM72.4941 154.66L72.5293 155.457C73.0137 154.848 73.6465 154.543 74.4277 154.543C75.7676 154.543 76.4434 155.299 76.4551 156.811V161H75.3711V156.805C75.3672 156.348 75.2617 156.01 75.0547 155.791C74.8516 155.572 74.5332 155.463 74.0996 155.463C73.748 155.463 73.4395 155.557 73.1738 155.744C72.9082 155.932 72.7012 156.178 72.5527 156.482V161H71.4688V154.66H72.4941Z" fill="#686868"/>
<path d="M177 83.5C177 83.5 192.282 65.2086 206 62.5C216.431 60.4403 222.488 67.5924 233 66C249.278 63.5342 252.396 45.9209 268.5 42.5C277.477 40.5931 291.5 42.5 291.5 42.5" stroke="#FF5151" stroke-width="2" stroke-linecap="round"/>
<path d="M206.5 62.3475C192.782 65.0562 177.5 83.3475 177.5 83.3475V110.5H292V42.3475C292 42.3475 277.977 40.4406 269 42.3475C252.896 45.7685 249.778 63.3817 233.5 65.8475C222.988 67.4399 216.931 60.2878 206.5 62.3475Z" fill="url(#paint0_linear_244_1001)"/>
<path d="M222.28 41.17C222.213 41.17 222.157 41.1467 222.11 41.1C222.063 41.0533 222.04 40.9967 222.04 40.93V38.98H220.12C220.053 38.98 219.997 38.9567 219.95 38.91C219.903 38.8633 219.88 38.8033 219.88 38.73V38.21C219.88 38.1367 219.903 38.08 219.95 38.04C219.997 37.9933 220.053 37.97 220.12 37.97H222.04V36.07C222.04 35.9967 222.063 35.94 222.11 35.9C222.157 35.8533 222.213 35.83 222.28 35.83H222.86C222.933 35.83 222.99 35.8533 223.03 35.9C223.077 35.94 223.1 35.9967 223.1 36.07V37.97H225.02C225.093 37.97 225.15 37.9933 225.19 38.04C225.237 38.08 225.26 38.1367 225.26 38.21V38.73C225.26 38.8033 225.237 38.8633 225.19 38.91C225.143 38.9567 225.087 38.98 225.02 38.98H223.1V40.93C223.1 40.9967 223.077 41.0533 223.03 41.1C222.99 41.1467 222.933 41.17 222.86 41.17H222.28ZM228.703 41.61C228.149 41.61 227.673 41.5167 227.273 41.33C226.879 41.1433 226.576 40.8967 226.363 40.59C226.156 40.2833 226.046 39.9533 226.033 39.6V39.58C226.033 39.5267 226.053 39.4833 226.093 39.45C226.133 39.4167 226.183 39.4 226.243 39.4H227.173C227.326 39.4 227.426 39.4667 227.473 39.6C227.566 39.8933 227.719 40.11 227.933 40.25C228.153 40.39 228.409 40.46 228.703 40.46C229.076 40.46 229.386 40.3467 229.633 40.12C229.886 39.8933 230.013 39.5767 230.013 39.17C230.013 38.81 229.886 38.5167 229.633 38.29C229.386 38.0633 229.076 37.95 228.703 37.95C228.503 37.95 228.339 37.9767 228.213 38.03C228.086 38.0833 227.963 38.1567 227.843 38.25C227.763 38.31 227.699 38.3533 227.653 38.38C227.613 38.4 227.563 38.41 227.503 38.41H226.583C226.523 38.41 226.469 38.39 226.423 38.35C226.383 38.3033 226.363 38.25 226.363 38.19L226.713 34.77C226.719 34.69 226.746 34.6267 226.793 34.58C226.846 34.5267 226.913 34.5 226.993 34.5H230.753C230.819 34.5 230.876 34.5233 230.923 34.57C230.969 34.6167 230.993 34.6733 230.993 34.74V35.41C230.993 35.4767 230.969 35.5333 230.923 35.58C230.876 35.6267 230.819 35.65 230.753 35.65H227.863L227.703 37.28C228.029 37.0533 228.466 36.94 229.013 36.94C229.446 36.94 229.846 37.0333 230.213 37.22C230.586 37.4 230.883 37.6633 231.103 38.01C231.323 38.35 231.433 38.7467 231.433 39.2C231.433 39.6867 231.319 40.1133 231.093 40.48C230.866 40.84 230.546 41.12 230.133 41.32C229.726 41.5133 229.249 41.61 228.703 41.61ZM233.764 38.02C233.324 38.02 232.97 37.9033 232.704 37.67C232.444 37.4367 232.3 37.12 232.274 36.72C232.267 36.6067 232.264 36.4567 232.264 36.27C232.264 36.07 232.267 35.91 232.274 35.79C232.3 35.3767 232.44 35.05 232.694 34.81C232.947 34.57 233.304 34.45 233.764 34.45C234.224 34.45 234.58 34.57 234.834 34.81C235.094 35.05 235.234 35.3767 235.254 35.79C235.267 36.0567 235.274 36.23 235.274 36.31C235.274 36.3833 235.267 36.52 235.254 36.72C235.234 37.12 235.09 37.4367 234.824 37.67C234.564 37.9033 234.21 38.02 233.764 38.02ZM232.944 41.5C232.884 41.5 232.834 41.4833 232.794 41.45C232.754 41.41 232.734 41.36 232.734 41.3C232.734 41.26 232.747 41.2233 232.774 41.19L237.704 34.69C237.757 34.6233 237.807 34.5767 237.854 34.55C237.9 34.5167 237.964 34.5 238.044 34.5H238.574C238.64 34.5 238.69 34.52 238.724 34.56C238.764 34.5933 238.784 34.64 238.784 34.7C238.784 34.74 238.77 34.7767 238.744 34.81L233.814 41.31C233.76 41.3767 233.71 41.4267 233.664 41.46C233.617 41.4867 233.554 41.5 233.474 41.5H232.944ZM233.764 37.28C233.957 37.28 234.1 37.2233 234.194 37.11C234.287 36.99 234.34 36.8433 234.354 36.67C234.367 36.4433 234.374 36.3033 234.374 36.25C234.374 36.1767 234.367 36.04 234.354 35.84C234.347 35.6667 234.294 35.5233 234.194 35.41C234.1 35.29 233.957 35.23 233.764 35.23C233.57 35.23 233.427 35.29 233.334 35.41C233.24 35.5233 233.19 35.6667 233.184 35.84C233.177 35.94 233.174 36.0767 233.174 36.25C233.174 36.4167 233.177 36.5567 233.184 36.67C233.197 36.8433 233.247 36.99 233.334 37.11C233.427 37.2233 233.57 37.28 233.764 37.28ZM237.754 41.56C237.314 41.56 236.96 41.44 236.694 41.2C236.434 40.9533 236.29 40.6267 236.264 40.22C236.257 40.1067 236.254 39.9567 236.254 39.77C236.254 39.5767 236.257 39.42 236.264 39.3C236.29 38.8867 236.43 38.56 236.684 38.32C236.937 38.08 237.294 37.96 237.754 37.96C238.214 37.96 238.57 38.08 238.824 38.32C239.084 38.56 239.224 38.8867 239.244 39.3C239.257 39.5667 239.264 39.7367 239.264 39.81C239.264 39.8833 239.257 40.02 239.244 40.22C239.217 40.6267 239.07 40.9533 238.804 41.2C238.544 41.44 238.194 41.56 237.754 41.56ZM237.754 40.78C237.954 40.78 238.097 40.7233 238.184 40.61C238.277 40.49 238.33 40.3467 238.344 40.18C238.357 39.9533 238.364 39.8133 238.364 39.76C238.364 39.6867 238.357 39.55 238.344 39.35C238.337 39.1767 238.284 39.03 238.184 38.91C238.09 38.79 237.947 38.73 237.754 38.73C237.56 38.73 237.417 38.79 237.324 38.91C237.23 39.0233 237.177 39.17 237.164 39.35C237.157 39.45 237.154 39.5867 237.154 39.76C237.154 39.9267 237.157 40.0667 237.164 40.18C237.184 40.3533 237.237 40.4967 237.324 40.61C237.417 40.7233 237.56 40.78 237.754 40.78Z" fill="#FF5151"/>
<path d="M228.5 49.5L230.5 47.5M230.5 47.5L232.5 49.5M230.5 47.5V54.5" stroke="#FF5151" stroke-linecap="round" stroke-linejoin="round"/>
<rect x="185" y="130.5" width="107" height="24" rx="4" fill="#FFEFE7"/>
<path d="M198.926 141.924H201.305V142.949H198.926V145.645H197.836V142.949H195.457V141.924H197.836V139.434H198.926V141.924ZM203.016 142.223L203.449 137.969H207.82V138.971H204.369L204.111 141.297C204.529 141.051 205.004 140.928 205.535 140.928C206.312 140.928 206.93 141.186 207.387 141.701C207.844 142.213 208.072 142.906 208.072 143.781C208.072 144.66 207.834 145.354 207.357 145.861C206.885 146.365 206.223 146.617 205.371 146.617C204.617 146.617 204.002 146.408 203.525 145.99C203.049 145.572 202.777 144.994 202.711 144.256H203.736C203.803 144.744 203.977 145.113 204.258 145.363C204.539 145.609 204.91 145.732 205.371 145.732C205.875 145.732 206.27 145.561 206.555 145.217C206.844 144.873 206.988 144.398 206.988 143.793C206.988 143.223 206.832 142.766 206.52 142.422C206.211 142.074 205.799 141.9 205.283 141.9C204.811 141.9 204.439 142.004 204.17 142.211L203.883 142.445L203.016 142.223ZM209.162 139.609C209.162 139.098 209.324 138.676 209.648 138.344C209.977 138.012 210.396 137.846 210.908 137.846C211.428 137.846 211.848 138.014 212.168 138.35C212.492 138.682 212.654 139.113 212.654 139.645V140.061C212.654 140.576 212.49 140.998 212.162 141.326C211.838 141.65 211.424 141.812 210.92 141.812C210.412 141.812 209.992 141.65 209.66 141.326C209.328 140.998 209.162 140.562 209.162 140.02V139.609ZM209.971 140.061C209.971 140.365 210.057 140.617 210.229 140.816C210.4 141.012 210.631 141.109 210.92 141.109C211.197 141.109 211.42 141.014 211.588 140.822C211.76 140.631 211.846 140.369 211.846 140.037V139.609C211.846 139.305 211.762 139.053 211.594 138.854C211.426 138.654 211.197 138.555 210.908 138.555C210.619 138.555 210.391 138.654 210.223 138.854C210.055 139.053 209.971 139.312 209.971 139.633V140.061ZM213.316 144.408C213.316 143.896 213.479 143.477 213.803 143.148C214.131 142.816 214.551 142.65 215.062 142.65C215.574 142.65 215.994 142.814 216.322 143.143C216.65 143.471 216.814 143.906 216.814 144.449V144.865C216.814 145.377 216.65 145.799 216.322 146.131C215.998 146.459 215.582 146.623 215.074 146.623C214.566 146.623 214.146 146.461 213.814 146.137C213.482 145.809 213.316 145.373 213.316 144.83V144.408ZM214.125 144.865C214.125 145.174 214.211 145.428 214.383 145.627C214.555 145.822 214.785 145.92 215.074 145.92C215.355 145.92 215.58 145.824 215.748 145.633C215.916 145.438 216 145.174 216 144.842V144.408C216 144.1 215.914 143.848 215.742 143.652C215.574 143.457 215.348 143.359 215.062 143.359C214.785 143.359 214.559 143.457 214.383 143.652C214.211 143.844 214.125 144.104 214.125 144.432V144.865ZM211.166 145.855L210.551 145.469L214.717 138.801L215.332 139.188L211.166 145.855ZM222.428 143.16V146.5H221.303V137.969H224.449C225.383 137.969 226.113 138.207 226.641 138.684C227.172 139.16 227.438 139.791 227.438 140.576C227.438 141.404 227.178 142.043 226.658 142.492C226.143 142.938 225.402 143.16 224.438 143.16H222.428ZM222.428 142.24H224.449C225.051 142.24 225.512 142.1 225.832 141.818C226.152 141.533 226.312 141.123 226.312 140.588C226.312 140.08 226.152 139.674 225.832 139.369C225.512 139.064 225.072 138.906 224.514 138.895H222.428V142.24ZM232.547 146.5C232.484 146.375 232.434 146.152 232.395 145.832C231.891 146.355 231.289 146.617 230.59 146.617C229.965 146.617 229.451 146.441 229.049 146.09C228.65 145.734 228.451 145.285 228.451 144.742C228.451 144.082 228.701 143.57 229.201 143.207C229.705 142.84 230.412 142.656 231.322 142.656H232.377V142.158C232.377 141.779 232.264 141.479 232.037 141.256C231.811 141.029 231.477 140.916 231.035 140.916C230.648 140.916 230.324 141.014 230.062 141.209C229.801 141.404 229.67 141.641 229.67 141.918H228.58C228.58 141.602 228.691 141.297 228.914 141.004C229.141 140.707 229.445 140.473 229.828 140.301C230.215 140.129 230.639 140.043 231.1 140.043C231.83 140.043 232.402 140.227 232.816 140.594C233.23 140.957 233.445 141.459 233.461 142.1V145.018C233.461 145.6 233.535 146.062 233.684 146.406V146.5H232.547ZM230.748 145.674C231.088 145.674 231.41 145.586 231.715 145.41C232.02 145.234 232.24 145.006 232.377 144.725V143.424H231.527C230.199 143.424 229.535 143.812 229.535 144.59C229.535 144.93 229.648 145.195 229.875 145.387C230.102 145.578 230.393 145.674 230.748 145.674ZM238.852 144.818C238.852 144.525 238.74 144.299 238.518 144.139C238.299 143.975 237.914 143.834 237.363 143.717C236.816 143.6 236.381 143.459 236.057 143.295C235.736 143.131 235.498 142.936 235.342 142.709C235.189 142.482 235.113 142.213 235.113 141.9C235.113 141.381 235.332 140.941 235.77 140.582C236.211 140.223 236.773 140.043 237.457 140.043C238.176 140.043 238.758 140.229 239.203 140.6C239.652 140.971 239.877 141.445 239.877 142.023H238.787C238.787 141.727 238.66 141.471 238.406 141.256C238.156 141.041 237.84 140.934 237.457 140.934C237.062 140.934 236.754 141.02 236.531 141.191C236.309 141.363 236.197 141.588 236.197 141.865C236.197 142.127 236.301 142.324 236.508 142.457C236.715 142.59 237.088 142.717 237.627 142.838C238.17 142.959 238.609 143.104 238.945 143.271C239.281 143.439 239.529 143.643 239.689 143.881C239.854 144.115 239.936 144.402 239.936 144.742C239.936 145.309 239.709 145.764 239.256 146.107C238.803 146.447 238.215 146.617 237.492 146.617C236.984 146.617 236.535 146.527 236.145 146.348C235.754 146.168 235.447 145.918 235.225 145.598C235.006 145.273 234.896 144.924 234.896 144.549H235.98C236 144.912 236.145 145.201 236.414 145.416C236.688 145.627 237.047 145.732 237.492 145.732C237.902 145.732 238.23 145.65 238.477 145.486C238.727 145.318 238.852 145.096 238.852 144.818ZM242.818 138.625V140.16H244.002V140.998H242.818V144.93C242.818 145.184 242.871 145.375 242.977 145.504C243.082 145.629 243.262 145.691 243.516 145.691C243.641 145.691 243.812 145.668 244.031 145.621V146.5C243.746 146.578 243.469 146.617 243.199 146.617C242.715 146.617 242.35 146.471 242.104 146.178C241.857 145.885 241.734 145.469 241.734 144.93V140.998H240.58V140.16H241.734V138.625H242.818ZM249.27 140.16L249.299 140.863C249.764 140.316 250.391 140.043 251.18 140.043C252.066 140.043 252.67 140.383 252.99 141.062C253.201 140.758 253.475 140.512 253.811 140.324C254.15 140.137 254.551 140.043 255.012 140.043C256.402 140.043 257.109 140.779 257.133 142.252V146.5H256.049V142.316C256.049 141.863 255.945 141.525 255.738 141.303C255.531 141.076 255.184 140.963 254.695 140.963C254.293 140.963 253.959 141.084 253.693 141.326C253.428 141.564 253.273 141.887 253.23 142.293V146.5H252.141V142.346C252.141 141.424 251.689 140.963 250.787 140.963C250.076 140.963 249.59 141.266 249.328 141.871V146.5H248.244V140.16H249.27ZM258.486 143.271C258.486 142.65 258.607 142.092 258.85 141.596C259.096 141.1 259.436 140.717 259.869 140.447C260.307 140.178 260.805 140.043 261.363 140.043C262.227 140.043 262.924 140.342 263.455 140.939C263.99 141.537 264.258 142.332 264.258 143.324V143.4C264.258 144.018 264.139 144.572 263.9 145.064C263.666 145.553 263.328 145.934 262.887 146.207C262.449 146.48 261.945 146.617 261.375 146.617C260.516 146.617 259.818 146.318 259.283 145.721C258.752 145.123 258.486 144.332 258.486 143.348V143.271ZM259.576 143.4C259.576 144.104 259.738 144.668 260.062 145.094C260.391 145.52 260.828 145.732 261.375 145.732C261.926 145.732 262.363 145.518 262.688 145.088C263.012 144.654 263.174 144.049 263.174 143.271C263.174 142.576 263.008 142.014 262.676 141.584C262.348 141.15 261.91 140.934 261.363 140.934C260.828 140.934 260.396 141.146 260.068 141.572C259.74 141.998 259.576 142.607 259.576 143.4ZM266.643 140.16L266.678 140.957C267.162 140.348 267.795 140.043 268.576 140.043C269.916 140.043 270.592 140.799 270.604 142.311V146.5H269.52V142.305C269.516 141.848 269.41 141.51 269.203 141.291C269 141.072 268.682 140.963 268.248 140.963C267.896 140.963 267.588 141.057 267.322 141.244C267.057 141.432 266.85 141.678 266.701 141.982V146.5H265.617V140.16H266.643ZM273.709 138.625V140.16H274.893V140.998H273.709V144.93C273.709 145.184 273.762 145.375 273.867 145.504C273.973 145.629 274.152 145.691 274.406 145.691C274.531 145.691 274.703 145.668 274.922 145.621V146.5C274.637 146.578 274.359 146.617 274.09 146.617C273.605 146.617 273.24 146.471 272.994 146.178C272.748 145.885 272.625 145.469 272.625 144.93V140.998H271.471V140.16H272.625V138.625H273.709ZM277.248 140.928C277.729 140.338 278.354 140.043 279.123 140.043C280.463 140.043 281.139 140.799 281.15 142.311V146.5H280.066V142.305C280.062 141.848 279.957 141.51 279.75 141.291C279.547 141.072 279.229 140.963 278.795 140.963C278.443 140.963 278.135 141.057 277.869 141.244C277.604 141.432 277.396 141.678 277.248 141.982V146.5H276.164V137.5H277.248V140.928Z" fill="#303030"/>
<rect x="0.5" y="0.5" width="311" height="185" rx="9.5" stroke="#E0E0E0"/>
<defs>
<linearGradient id="paint0_linear_244_1001" x1="213" y1="21.5" x2="237.5" y2="84" gradientUnits="userSpaceOnUse">
<stop stop-color="#FF5151"/>
<stop offset="1" stop-color="white" stop-opacity="0"/>
</linearGradient>
</defs>
</svg>
