<svg width="312" height="186" viewBox="0 0 312 186" fill="none" xmlns="http://www.w3.org/2000/svg">
<rect x="0.5" y="0.5" width="311" height="185" rx="9.5" fill="white"/>
<path d="M28.384 26.88V28.368H25.424V38H23.6V28.368H20.624V26.88H28.384ZM34.0553 38.144C33.2233 38.144 32.4713 37.9573 31.7993 37.584C31.1273 37.2 30.5993 36.6667 30.2153 35.984C29.8313 35.2907 29.6393 34.4907 29.6393 33.584C29.6393 32.688 29.8366 31.8933 30.2313 31.2C30.6259 30.5067 31.1646 29.9733 31.8473 29.6C32.5299 29.2267 33.2926 29.04 34.1353 29.04C34.9779 29.04 35.7406 29.2267 36.4233 29.6C37.1059 29.9733 37.6446 30.5067 38.0393 31.2C38.4339 31.8933 38.6313 32.688 38.6313 33.584C38.6313 34.48 38.4286 35.2747 38.0233 35.968C37.6179 36.6613 37.0633 37.2 36.3593 37.584C35.6659 37.9573 34.8979 38.144 34.0553 38.144ZM34.0553 36.56C34.5246 36.56 34.9619 36.448 35.3673 36.224C35.7833 36 36.1193 35.664 36.3753 35.216C36.6313 34.768 36.7593 34.224 36.7593 33.584C36.7593 32.944 36.6366 32.4053 36.3913 31.968C36.1459 31.52 35.8206 31.184 35.4153 30.96C35.0099 30.736 34.5726 30.624 34.1033 30.624C33.6339 30.624 33.1966 30.736 32.7913 30.96C32.3966 31.184 32.0819 31.52 31.8473 31.968C31.6126 32.4053 31.4953 32.944 31.4953 33.584C31.4953 34.5333 31.7353 35.2693 32.2153 35.792C32.7059 36.304 33.3193 36.56 34.0553 36.56ZM42.5624 30.672V35.552C42.5624 35.8827 42.637 36.1227 42.7864 36.272C42.9464 36.4107 43.213 36.48 43.5864 36.48H44.7064V38H43.2664C42.445 38 41.8157 37.808 41.3784 37.424C40.941 37.04 40.7224 36.416 40.7224 35.552V30.672H39.6824V29.184H40.7224V26.992H42.5624V29.184H44.7064V30.672H42.5624ZM45.7795 33.552C45.7795 32.6667 45.9608 31.8827 46.3235 31.2C46.6968 30.5173 47.1982 29.9893 47.8275 29.616C48.4675 29.232 49.1715 29.04 49.9395 29.04C50.6328 29.04 51.2355 29.1787 51.7475 29.456C52.2702 29.7227 52.6862 30.0587 52.9955 30.464V29.184H54.8355V38H52.9955V36.688C52.6862 37.104 52.2648 37.4507 51.7315 37.728C51.1982 38.0053 50.5902 38.144 49.9075 38.144C49.1502 38.144 48.4568 37.952 47.8275 37.568C47.1982 37.1733 46.6968 36.6293 46.3235 35.936C45.9608 35.232 45.7795 34.4373 45.7795 33.552ZM52.9955 33.584C52.9955 32.976 52.8675 32.448 52.6115 32C52.3662 31.552 52.0408 31.2107 51.6355 30.976C51.2302 30.7413 50.7928 30.624 50.3235 30.624C49.8542 30.624 49.4168 30.7413 49.0115 30.976C48.6062 31.2 48.2755 31.536 48.0195 31.984C47.7742 32.4213 47.6515 32.944 47.6515 33.552C47.6515 34.16 47.7742 34.6933 48.0195 35.152C48.2755 35.6107 48.6062 35.9627 49.0115 36.208C49.4275 36.4427 49.8648 36.56 50.3235 36.56C50.7928 36.56 51.2302 36.4427 51.6355 36.208C52.0408 35.9733 52.3662 35.632 52.6115 35.184C52.8675 34.7253 52.9955 34.192 52.9955 33.584ZM59.0553 26.16V38H57.2313V26.16H59.0553ZM67.4303 28.352V31.616H71.2703V33.104H67.4303V36.512H71.7503V38H65.6063V26.864H71.7503V28.352H67.4303ZM84.6689 29.04C85.3622 29.04 85.9809 29.184 86.5249 29.472C87.0795 29.76 87.5115 30.1867 87.8209 30.752C88.1409 31.3173 88.3009 32 88.3009 32.8V38H86.4929V33.072C86.4929 32.2827 86.2955 31.68 85.9009 31.264C85.5062 30.8373 84.9675 30.624 84.2849 30.624C83.6022 30.624 83.0582 30.8373 82.6529 31.264C82.2582 31.68 82.0609 32.2827 82.0609 33.072V38H80.2529V33.072C80.2529 32.2827 80.0555 31.68 79.6609 31.264C79.2662 30.8373 78.7275 30.624 78.0449 30.624C77.3622 30.624 76.8182 30.8373 76.4129 31.264C76.0182 31.68 75.8209 32.2827 75.8209 33.072V38H73.9969V29.184H75.8209V30.192C76.1195 29.8293 76.4982 29.5467 76.9569 29.344C77.4155 29.1413 77.9062 29.04 78.4289 29.04C79.1329 29.04 79.7622 29.1893 80.3169 29.488C80.8715 29.7867 81.2982 30.2187 81.5969 30.784C81.8635 30.2507 82.2795 29.8293 82.8449 29.52C83.4102 29.2 84.0182 29.04 84.6689 29.04ZM92.4459 30.48C92.7552 30.0747 93.1765 29.7333 93.7099 29.456C94.2432 29.1787 94.8459 29.04 95.5179 29.04C96.2859 29.04 96.9845 29.232 97.6139 29.616C98.2539 29.9893 98.7552 30.5173 99.1179 31.2C99.4805 31.8827 99.6619 32.6667 99.6619 33.552C99.6619 34.4373 99.4805 35.232 99.1179 35.936C98.7552 36.6293 98.2539 37.1733 97.6139 37.568C96.9845 37.952 96.2859 38.144 95.5179 38.144C94.8459 38.144 94.2485 38.0107 93.7259 37.744C93.2032 37.4667 92.7765 37.1253 92.4459 36.72V42.192H90.6219V29.184H92.4459V30.48ZM97.8059 33.552C97.8059 32.944 97.6779 32.4213 97.4219 31.984C97.1765 31.536 96.8459 31.2 96.4299 30.976C96.0245 30.7413 95.5872 30.624 95.1179 30.624C94.6592 30.624 94.2219 30.7413 93.8059 30.976C93.4005 31.2107 93.0699 31.552 92.8139 32C92.5685 32.448 92.4459 32.976 92.4459 33.584C92.4459 34.192 92.5685 34.7253 92.8139 35.184C93.0699 35.632 93.4005 35.9733 93.8059 36.208C94.2219 36.4427 94.6592 36.56 95.1179 36.56C95.5872 36.56 96.0245 36.4427 96.4299 36.208C96.8459 35.9627 97.1765 35.6107 97.4219 35.152C97.6779 34.6933 97.8059 34.16 97.8059 33.552ZM103.29 26.16V38H101.466V26.16H103.29ZM109.508 38.144C108.676 38.144 107.924 37.9573 107.252 37.584C106.58 37.2 106.052 36.6667 105.668 35.984C105.284 35.2907 105.092 34.4907 105.092 33.584C105.092 32.688 105.29 31.8933 105.684 31.2C106.079 30.5067 106.618 29.9733 107.3 29.6C107.983 29.2267 108.746 29.04 109.588 29.04C110.431 29.04 111.194 29.2267 111.876 29.6C112.559 29.9733 113.098 30.5067 113.492 31.2C113.887 31.8933 114.084 32.688 114.084 33.584C114.084 34.48 113.882 35.2747 113.476 35.968C113.071 36.6613 112.516 37.2 111.812 37.584C111.119 37.9573 110.351 38.144 109.508 38.144ZM109.508 36.56C109.978 36.56 110.415 36.448 110.82 36.224C111.236 36 111.572 35.664 111.828 35.216C112.084 34.768 112.212 34.224 112.212 33.584C112.212 32.944 112.09 32.4053 111.844 31.968C111.599 31.52 111.274 31.184 110.868 30.96C110.463 30.736 110.026 30.624 109.556 30.624C109.087 30.624 108.65 30.736 108.244 30.96C107.85 31.184 107.535 31.52 107.3 31.968C107.066 32.4053 106.948 32.944 106.948 33.584C106.948 34.5333 107.188 35.2693 107.668 35.792C108.159 36.304 108.772 36.56 109.508 36.56ZM123.824 29.184L118.416 42.144H116.528L118.32 37.856L114.848 29.184H116.88L119.36 35.904L121.936 29.184H123.824ZM133.28 33.376C133.28 33.7067 133.259 34.0053 133.216 34.272H126.48C126.533 34.976 126.795 35.5413 127.264 35.968C127.733 36.3947 128.309 36.608 128.992 36.608C129.973 36.608 130.667 36.1973 131.072 35.376H133.04C132.773 36.1867 132.288 36.8533 131.584 37.376C130.891 37.888 130.027 38.144 128.992 38.144C128.149 38.144 127.392 37.9573 126.72 37.584C126.059 37.2 125.536 36.6667 125.152 35.984C124.779 35.2907 124.592 34.4907 124.592 33.584C124.592 32.6773 124.773 31.8827 125.136 31.2C125.509 30.5067 126.027 29.9733 126.688 29.6C127.36 29.2267 128.128 29.04 128.992 29.04C129.824 29.04 130.565 29.2213 131.216 29.584C131.867 29.9467 132.373 30.4587 132.736 31.12C133.099 31.7707 133.28 32.5227 133.28 33.376ZM131.376 32.8C131.365 32.128 131.125 31.5893 130.656 31.184C130.187 30.7787 129.605 30.576 128.912 30.576C128.283 30.576 127.744 30.7787 127.296 31.184C126.848 31.5787 126.581 32.1173 126.496 32.8H131.376ZM143.155 33.376C143.155 33.7067 143.134 34.0053 143.091 34.272H136.355C136.408 34.976 136.67 35.5413 137.139 35.968C137.608 36.3947 138.184 36.608 138.867 36.608C139.848 36.608 140.542 36.1973 140.947 35.376H142.915C142.648 36.1867 142.163 36.8533 141.459 37.376C140.766 37.888 139.902 38.144 138.867 38.144C138.024 38.144 137.267 37.9573 136.595 37.584C135.934 37.2 135.411 36.6667 135.027 35.984C134.654 35.2907 134.467 34.4907 134.467 33.584C134.467 32.6773 134.648 31.8827 135.011 31.2C135.384 30.5067 135.902 29.9733 136.563 29.6C137.235 29.2267 138.003 29.04 138.867 29.04C139.699 29.04 140.44 29.2213 141.091 29.584C141.742 29.9467 142.248 30.4587 142.611 31.12C142.974 31.7707 143.155 32.5227 143.155 33.376ZM141.251 32.8C141.24 32.128 141 31.5893 140.531 31.184C140.062 30.7787 139.48 30.576 138.787 30.576C138.158 30.576 137.619 30.7787 137.171 31.184C136.723 31.5787 136.456 32.1173 136.371 32.8H141.251ZM148.15 38.144C147.457 38.144 146.833 38.0213 146.278 37.776C145.734 37.52 145.302 37.1787 144.982 36.752C144.662 36.3147 144.491 35.8293 144.47 35.296H146.358C146.39 35.6693 146.566 35.984 146.886 36.24C147.217 36.4853 147.627 36.608 148.118 36.608C148.63 36.608 149.025 36.512 149.302 36.32C149.59 36.1173 149.734 35.8613 149.734 35.552C149.734 35.2213 149.574 34.976 149.254 34.816C148.945 34.656 148.449 34.48 147.766 34.288C147.105 34.1067 146.566 33.9307 146.15 33.76C145.734 33.5893 145.371 33.328 145.062 32.976C144.763 32.624 144.614 32.16 144.614 31.584C144.614 31.1147 144.753 30.688 145.03 30.304C145.307 29.9093 145.702 29.6 146.214 29.376C146.737 29.152 147.334 29.04 148.006 29.04C149.009 29.04 149.814 29.296 150.422 29.808C151.041 30.3093 151.371 30.9973 151.414 31.872H149.59C149.558 31.4773 149.398 31.1627 149.11 30.928C148.822 30.6933 148.433 30.576 147.942 30.576C147.462 30.576 147.094 30.6667 146.838 30.848C146.582 31.0293 146.454 31.2693 146.454 31.568C146.454 31.8027 146.539 32 146.71 32.16C146.881 32.32 147.089 32.448 147.334 32.544C147.579 32.6293 147.942 32.7413 148.422 32.88C149.062 33.0507 149.585 33.2267 149.99 33.408C150.406 33.5787 150.763 33.8347 151.062 34.176C151.361 34.5173 151.515 34.9707 151.526 35.536C151.526 36.0373 151.387 36.4853 151.11 36.88C150.833 37.2747 150.438 37.584 149.926 37.808C149.425 38.032 148.833 38.144 148.15 38.144Z" fill="#161E54"/>
<path d="M28.384 26.88V28.368H25.424V38H23.6V28.368H20.624V26.88H28.384ZM34.0553 38.144C33.2233 38.144 32.4713 37.9573 31.7993 37.584C31.1273 37.2 30.5993 36.6667 30.2153 35.984C29.8313 35.2907 29.6393 34.4907 29.6393 33.584C29.6393 32.688 29.8366 31.8933 30.2313 31.2C30.6259 30.5067 31.1646 29.9733 31.8473 29.6C32.5299 29.2267 33.2926 29.04 34.1353 29.04C34.9779 29.04 35.7406 29.2267 36.4233 29.6C37.1059 29.9733 37.6446 30.5067 38.0393 31.2C38.4339 31.8933 38.6313 32.688 38.6313 33.584C38.6313 34.48 38.4286 35.2747 38.0233 35.968C37.6179 36.6613 37.0633 37.2 36.3593 37.584C35.6659 37.9573 34.8979 38.144 34.0553 38.144ZM34.0553 36.56C34.5246 36.56 34.9619 36.448 35.3673 36.224C35.7833 36 36.1193 35.664 36.3753 35.216C36.6313 34.768 36.7593 34.224 36.7593 33.584C36.7593 32.944 36.6366 32.4053 36.3913 31.968C36.1459 31.52 35.8206 31.184 35.4153 30.96C35.0099 30.736 34.5726 30.624 34.1033 30.624C33.6339 30.624 33.1966 30.736 32.7913 30.96C32.3966 31.184 32.0819 31.52 31.8473 31.968C31.6126 32.4053 31.4953 32.944 31.4953 33.584C31.4953 34.5333 31.7353 35.2693 32.2153 35.792C32.7059 36.304 33.3193 36.56 34.0553 36.56ZM42.5624 30.672V35.552C42.5624 35.8827 42.637 36.1227 42.7864 36.272C42.9464 36.4107 43.213 36.48 43.5864 36.48H44.7064V38H43.2664C42.445 38 41.8157 37.808 41.3784 37.424C40.941 37.04 40.7224 36.416 40.7224 35.552V30.672H39.6824V29.184H40.7224V26.992H42.5624V29.184H44.7064V30.672H42.5624ZM45.7795 33.552C45.7795 32.6667 45.9608 31.8827 46.3235 31.2C46.6968 30.5173 47.1982 29.9893 47.8275 29.616C48.4675 29.232 49.1715 29.04 49.9395 29.04C50.6328 29.04 51.2355 29.1787 51.7475 29.456C52.2702 29.7227 52.6862 30.0587 52.9955 30.464V29.184H54.8355V38H52.9955V36.688C52.6862 37.104 52.2648 37.4507 51.7315 37.728C51.1982 38.0053 50.5902 38.144 49.9075 38.144C49.1502 38.144 48.4568 37.952 47.8275 37.568C47.1982 37.1733 46.6968 36.6293 46.3235 35.936C45.9608 35.232 45.7795 34.4373 45.7795 33.552ZM52.9955 33.584C52.9955 32.976 52.8675 32.448 52.6115 32C52.3662 31.552 52.0408 31.2107 51.6355 30.976C51.2302 30.7413 50.7928 30.624 50.3235 30.624C49.8542 30.624 49.4168 30.7413 49.0115 30.976C48.6062 31.2 48.2755 31.536 48.0195 31.984C47.7742 32.4213 47.6515 32.944 47.6515 33.552C47.6515 34.16 47.7742 34.6933 48.0195 35.152C48.2755 35.6107 48.6062 35.9627 49.0115 36.208C49.4275 36.4427 49.8648 36.56 50.3235 36.56C50.7928 36.56 51.2302 36.4427 51.6355 36.208C52.0408 35.9733 52.3662 35.632 52.6115 35.184C52.8675 34.7253 52.9955 34.192 52.9955 33.584ZM59.0553 26.16V38H57.2313V26.16H59.0553ZM67.4303 28.352V31.616H71.2703V33.104H67.4303V36.512H71.7503V38H65.6063V26.864H71.7503V28.352H67.4303ZM84.6689 29.04C85.3622 29.04 85.9809 29.184 86.5249 29.472C87.0795 29.76 87.5115 30.1867 87.8209 30.752C88.1409 31.3173 88.3009 32 88.3009 32.8V38H86.4929V33.072C86.4929 32.2827 86.2955 31.68 85.9009 31.264C85.5062 30.8373 84.9675 30.624 84.2849 30.624C83.6022 30.624 83.0582 30.8373 82.6529 31.264C82.2582 31.68 82.0609 32.2827 82.0609 33.072V38H80.2529V33.072C80.2529 32.2827 80.0555 31.68 79.6609 31.264C79.2662 30.8373 78.7275 30.624 78.0449 30.624C77.3622 30.624 76.8182 30.8373 76.4129 31.264C76.0182 31.68 75.8209 32.2827 75.8209 33.072V38H73.9969V29.184H75.8209V30.192C76.1195 29.8293 76.4982 29.5467 76.9569 29.344C77.4155 29.1413 77.9062 29.04 78.4289 29.04C79.1329 29.04 79.7622 29.1893 80.3169 29.488C80.8715 29.7867 81.2982 30.2187 81.5969 30.784C81.8635 30.2507 82.2795 29.8293 82.8449 29.52C83.4102 29.2 84.0182 29.04 84.6689 29.04ZM92.4459 30.48C92.7552 30.0747 93.1765 29.7333 93.7099 29.456C94.2432 29.1787 94.8459 29.04 95.5179 29.04C96.2859 29.04 96.9845 29.232 97.6139 29.616C98.2539 29.9893 98.7552 30.5173 99.1179 31.2C99.4805 31.8827 99.6619 32.6667 99.6619 33.552C99.6619 34.4373 99.4805 35.232 99.1179 35.936C98.7552 36.6293 98.2539 37.1733 97.6139 37.568C96.9845 37.952 96.2859 38.144 95.5179 38.144C94.8459 38.144 94.2485 38.0107 93.7259 37.744C93.2032 37.4667 92.7765 37.1253 92.4459 36.72V42.192H90.6219V29.184H92.4459V30.48ZM97.8059 33.552C97.8059 32.944 97.6779 32.4213 97.4219 31.984C97.1765 31.536 96.8459 31.2 96.4299 30.976C96.0245 30.7413 95.5872 30.624 95.1179 30.624C94.6592 30.624 94.2219 30.7413 93.8059 30.976C93.4005 31.2107 93.0699 31.552 92.8139 32C92.5685 32.448 92.4459 32.976 92.4459 33.584C92.4459 34.192 92.5685 34.7253 92.8139 35.184C93.0699 35.632 93.4005 35.9733 93.8059 36.208C94.2219 36.4427 94.6592 36.56 95.1179 36.56C95.5872 36.56 96.0245 36.4427 96.4299 36.208C96.8459 35.9627 97.1765 35.6107 97.4219 35.152C97.6779 34.6933 97.8059 34.16 97.8059 33.552ZM103.29 26.16V38H101.466V26.16H103.29ZM109.508 38.144C108.676 38.144 107.924 37.9573 107.252 37.584C106.58 37.2 106.052 36.6667 105.668 35.984C105.284 35.2907 105.092 34.4907 105.092 33.584C105.092 32.688 105.29 31.8933 105.684 31.2C106.079 30.5067 106.618 29.9733 107.3 29.6C107.983 29.2267 108.746 29.04 109.588 29.04C110.431 29.04 111.194 29.2267 111.876 29.6C112.559 29.9733 113.098 30.5067 113.492 31.2C113.887 31.8933 114.084 32.688 114.084 33.584C114.084 34.48 113.882 35.2747 113.476 35.968C113.071 36.6613 112.516 37.2 111.812 37.584C111.119 37.9573 110.351 38.144 109.508 38.144ZM109.508 36.56C109.978 36.56 110.415 36.448 110.82 36.224C111.236 36 111.572 35.664 111.828 35.216C112.084 34.768 112.212 34.224 112.212 33.584C112.212 32.944 112.09 32.4053 111.844 31.968C111.599 31.52 111.274 31.184 110.868 30.96C110.463 30.736 110.026 30.624 109.556 30.624C109.087 30.624 108.65 30.736 108.244 30.96C107.85 31.184 107.535 31.52 107.3 31.968C107.066 32.4053 106.948 32.944 106.948 33.584C106.948 34.5333 107.188 35.2693 107.668 35.792C108.159 36.304 108.772 36.56 109.508 36.56ZM123.824 29.184L118.416 42.144H116.528L118.32 37.856L114.848 29.184H116.88L119.36 35.904L121.936 29.184H123.824ZM133.28 33.376C133.28 33.7067 133.259 34.0053 133.216 34.272H126.48C126.533 34.976 126.795 35.5413 127.264 35.968C127.733 36.3947 128.309 36.608 128.992 36.608C129.973 36.608 130.667 36.1973 131.072 35.376H133.04C132.773 36.1867 132.288 36.8533 131.584 37.376C130.891 37.888 130.027 38.144 128.992 38.144C128.149 38.144 127.392 37.9573 126.72 37.584C126.059 37.2 125.536 36.6667 125.152 35.984C124.779 35.2907 124.592 34.4907 124.592 33.584C124.592 32.6773 124.773 31.8827 125.136 31.2C125.509 30.5067 126.027 29.9733 126.688 29.6C127.36 29.2267 128.128 29.04 128.992 29.04C129.824 29.04 130.565 29.2213 131.216 29.584C131.867 29.9467 132.373 30.4587 132.736 31.12C133.099 31.7707 133.28 32.5227 133.28 33.376ZM131.376 32.8C131.365 32.128 131.125 31.5893 130.656 31.184C130.187 30.7787 129.605 30.576 128.912 30.576C128.283 30.576 127.744 30.7787 127.296 31.184C126.848 31.5787 126.581 32.1173 126.496 32.8H131.376ZM143.155 33.376C143.155 33.7067 143.134 34.0053 143.091 34.272H136.355C136.408 34.976 136.67 35.5413 137.139 35.968C137.608 36.3947 138.184 36.608 138.867 36.608C139.848 36.608 140.542 36.1973 140.947 35.376H142.915C142.648 36.1867 142.163 36.8533 141.459 37.376C140.766 37.888 139.902 38.144 138.867 38.144C138.024 38.144 137.267 37.9573 136.595 37.584C135.934 37.2 135.411 36.6667 135.027 35.984C134.654 35.2907 134.467 34.4907 134.467 33.584C134.467 32.6773 134.648 31.8827 135.011 31.2C135.384 30.5067 135.902 29.9733 136.563 29.6C137.235 29.2267 138.003 29.04 138.867 29.04C139.699 29.04 140.44 29.2213 141.091 29.584C141.742 29.9467 142.248 30.4587 142.611 31.12C142.974 31.7707 143.155 32.5227 143.155 33.376ZM141.251 32.8C141.24 32.128 141 31.5893 140.531 31.184C140.062 30.7787 139.48 30.576 138.787 30.576C138.158 30.576 137.619 30.7787 137.171 31.184C136.723 31.5787 136.456 32.1173 136.371 32.8H141.251ZM148.15 38.144C147.457 38.144 146.833 38.0213 146.278 37.776C145.734 37.52 145.302 37.1787 144.982 36.752C144.662 36.3147 144.491 35.8293 144.47 35.296H146.358C146.39 35.6693 146.566 35.984 146.886 36.24C147.217 36.4853 147.627 36.608 148.118 36.608C148.63 36.608 149.025 36.512 149.302 36.32C149.59 36.1173 149.734 35.8613 149.734 35.552C149.734 35.2213 149.574 34.976 149.254 34.816C148.945 34.656 148.449 34.48 147.766 34.288C147.105 34.1067 146.566 33.9307 146.15 33.76C145.734 33.5893 145.371 33.328 145.062 32.976C144.763 32.624 144.614 32.16 144.614 31.584C144.614 31.1147 144.753 30.688 145.03 30.304C145.307 29.9093 145.702 29.6 146.214 29.376C146.737 29.152 147.334 29.04 148.006 29.04C149.009 29.04 149.814 29.296 150.422 29.808C151.041 30.3093 151.371 30.9973 151.414 31.872H149.59C149.558 31.4773 149.398 31.1627 149.11 30.928C148.822 30.6933 148.433 30.576 147.942 30.576C147.462 30.576 147.094 30.6667 146.838 30.848C146.582 31.0293 146.454 31.2693 146.454 31.568C146.454 31.8027 146.539 32 146.71 32.16C146.881 32.32 147.089 32.448 147.334 32.544C147.579 32.6293 147.942 32.7413 148.422 32.88C149.062 33.0507 149.585 33.2267 149.99 33.408C150.406 33.5787 150.763 33.8347 151.062 34.176C151.361 34.5173 151.515 34.9707 151.526 35.536C151.526 36.0373 151.387 36.4853 151.11 36.88C150.833 37.2747 150.438 37.584 149.926 37.808C149.425 38.032 148.833 38.144 148.15 38.144Z" fill="black" fill-opacity="0.2"/>
<path d="M25.166 88.49C27.854 86.166 29.968 84.262 31.508 82.778C33.076 81.266 34.378 79.698 35.414 78.074C36.45 76.45 36.968 74.826 36.968 73.202C36.968 71.522 36.562 70.206 35.75 69.254C34.966 68.302 33.72 67.826 32.012 67.826C30.36 67.826 29.072 68.358 28.148 69.422C27.252 70.458 26.776 71.858 26.72 73.622H22.1C22.184 70.43 23.136 67.994 24.956 66.314C26.804 64.606 29.142 63.752 31.97 63.752C35.022 63.752 37.402 64.592 39.11 66.272C40.846 67.952 41.714 70.192 41.714 72.992C41.714 75.008 41.196 76.954 40.16 78.83C39.152 80.678 37.934 82.344 36.506 83.828C35.106 85.284 33.314 86.978 31.13 88.91L29.24 90.59H42.554V94.58H22.142V91.094L25.166 88.49ZM46.1302 68.75V64.382H54.8662V95H50.0362V68.75H46.1302ZM77.9078 71.48C77.5998 70.192 77.0398 69.226 76.2278 68.582C75.4158 67.938 74.2818 67.616 72.8258 67.616C70.6138 67.616 68.9618 68.47 67.8698 70.178C66.7778 71.858 66.2038 74.658 66.1478 78.578C66.8758 77.346 67.9398 76.394 69.3398 75.722C70.7398 75.05 72.2518 74.714 73.8758 74.714C75.7238 74.714 77.3478 75.12 78.7478 75.932C80.1758 76.716 81.2818 77.864 82.0658 79.376C82.8778 80.888 83.2838 82.694 83.2838 84.794C83.2838 86.754 82.8918 88.504 82.1078 90.044C81.3518 91.584 80.2178 92.802 78.7058 93.698C77.1938 94.566 75.3738 95 73.2458 95C70.3618 95 68.0938 94.37 66.4418 93.11C64.8178 91.822 63.6698 90.016 62.9978 87.692C62.3538 85.368 62.0318 82.47 62.0318 78.998C62.0318 68.75 65.6438 63.626 72.8678 63.626C75.6678 63.626 77.8658 64.382 79.4618 65.894C81.0858 67.406 82.0378 69.268 82.3178 71.48H77.9078ZM72.8258 78.746C71.1178 78.746 69.6618 79.264 68.4578 80.3C67.2818 81.308 66.6938 82.778 66.6938 84.71C66.6938 86.642 67.2398 88.182 68.3318 89.33C69.4518 90.45 71.0058 91.01 72.9938 91.01C74.7578 91.01 76.1438 90.464 77.1518 89.372C78.1878 88.28 78.7058 86.824 78.7058 85.004C78.7058 83.1 78.2018 81.588 77.1938 80.468C76.2138 79.32 74.7578 78.746 72.8258 78.746Z" fill="#161E54"/>
<path d="M25.166 88.49C27.854 86.166 29.968 84.262 31.508 82.778C33.076 81.266 34.378 79.698 35.414 78.074C36.45 76.45 36.968 74.826 36.968 73.202C36.968 71.522 36.562 70.206 35.75 69.254C34.966 68.302 33.72 67.826 32.012 67.826C30.36 67.826 29.072 68.358 28.148 69.422C27.252 70.458 26.776 71.858 26.72 73.622H22.1C22.184 70.43 23.136 67.994 24.956 66.314C26.804 64.606 29.142 63.752 31.97 63.752C35.022 63.752 37.402 64.592 39.11 66.272C40.846 67.952 41.714 70.192 41.714 72.992C41.714 75.008 41.196 76.954 40.16 78.83C39.152 80.678 37.934 82.344 36.506 83.828C35.106 85.284 33.314 86.978 31.13 88.91L29.24 90.59H42.554V94.58H22.142V91.094L25.166 88.49ZM46.1302 68.75V64.382H54.8662V95H50.0362V68.75H46.1302ZM77.9078 71.48C77.5998 70.192 77.0398 69.226 76.2278 68.582C75.4158 67.938 74.2818 67.616 72.8258 67.616C70.6138 67.616 68.9618 68.47 67.8698 70.178C66.7778 71.858 66.2038 74.658 66.1478 78.578C66.8758 77.346 67.9398 76.394 69.3398 75.722C70.7398 75.05 72.2518 74.714 73.8758 74.714C75.7238 74.714 77.3478 75.12 78.7478 75.932C80.1758 76.716 81.2818 77.864 82.0658 79.376C82.8778 80.888 83.2838 82.694 83.2838 84.794C83.2838 86.754 82.8918 88.504 82.1078 90.044C81.3518 91.584 80.2178 92.802 78.7058 93.698C77.1938 94.566 75.3738 95 73.2458 95C70.3618 95 68.0938 94.37 66.4418 93.11C64.8178 91.822 63.6698 90.016 62.9978 87.692C62.3538 85.368 62.0318 82.47 62.0318 78.998C62.0318 68.75 65.6438 63.626 72.8678 63.626C75.6678 63.626 77.8658 64.382 79.4618 65.894C81.0858 67.406 82.0378 69.268 82.3178 71.48H77.9078ZM72.8258 78.746C71.1178 78.746 69.6618 79.264 68.4578 80.3C67.2818 81.308 66.6938 82.778 66.6938 84.71C66.6938 86.642 67.2398 88.182 68.3318 89.33C69.4518 90.45 71.0058 91.01 72.9938 91.01C74.7578 91.01 76.1438 90.464 77.1518 89.372C78.1878 88.28 78.7058 86.824 78.7058 85.004C78.7058 83.1 78.2018 81.588 77.1938 80.468C76.2138 79.32 74.7578 78.746 72.8258 78.746Z" fill="black" fill-opacity="0.2"/>
<path d="M24.2715 139H23.1816V131.775L20.9961 132.578V131.594L24.1016 130.428H24.2715V139ZM33.0371 139H27.4473V138.221L30.4004 134.939C30.8379 134.443 31.1387 134.041 31.3027 133.732C31.4707 133.42 31.5547 133.098 31.5547 132.766C31.5547 132.32 31.4199 131.955 31.1504 131.67C30.8809 131.385 30.5215 131.242 30.0723 131.242C29.5332 131.242 29.1133 131.396 28.8125 131.705C28.5156 132.01 28.3672 132.436 28.3672 132.982H27.2832C27.2832 132.197 27.5352 131.562 28.0391 131.078C28.5469 130.594 29.2246 130.352 30.0723 130.352C30.8652 130.352 31.4922 130.561 31.9531 130.979C32.4141 131.393 32.6445 131.945 32.6445 132.637C32.6445 133.477 32.1094 134.477 31.0391 135.637L28.7539 138.115H33.0371V139ZM39.5352 135.361C39.5352 136.631 39.3184 137.574 38.8848 138.191C38.4512 138.809 37.7734 139.117 36.8516 139.117C35.9414 139.117 35.2676 138.816 34.8301 138.215C34.3926 137.609 34.166 136.707 34.1504 135.508V134.061C34.1504 132.807 34.3672 131.875 34.8008 131.266C35.2344 130.656 35.9141 130.352 36.8398 130.352C37.7578 130.352 38.4336 130.646 38.8672 131.236C39.3008 131.822 39.5234 132.729 39.5352 133.955V135.361ZM38.4512 133.879C38.4512 132.961 38.3223 132.293 38.0645 131.875C37.8066 131.453 37.3984 131.242 36.8398 131.242C36.2852 131.242 35.8809 131.451 35.627 131.869C35.373 132.287 35.2422 132.93 35.2344 133.797V135.531C35.2344 136.453 35.3672 137.135 35.6328 137.576C35.9023 138.014 36.3086 138.232 36.8516 138.232C37.3867 138.232 37.7832 138.025 38.041 137.611C38.3027 137.197 38.4395 136.545 38.4512 135.654V133.879ZM45.6348 130.469L48.4238 137.43L51.2129 130.469H52.6719V139H51.5469V135.678L51.6523 132.092L48.8516 139H47.9902L45.1953 132.109L45.3066 135.678V139H44.1816V130.469H45.6348ZM57.1191 139.117C56.2598 139.117 55.5605 138.836 55.0215 138.273C54.4824 137.707 54.2129 136.951 54.2129 136.006V135.807C54.2129 135.178 54.332 134.617 54.5703 134.125C54.8125 133.629 55.1484 133.242 55.5781 132.965C56.0117 132.684 56.4805 132.543 56.9844 132.543C57.8086 132.543 58.4492 132.814 58.9062 133.357C59.3633 133.9 59.5918 134.678 59.5918 135.689V136.141H55.2969C55.3125 136.766 55.4941 137.271 55.8418 137.658C56.1934 138.041 56.6387 138.232 57.1777 138.232C57.5605 138.232 57.8848 138.154 58.1504 137.998C58.416 137.842 58.6484 137.635 58.8477 137.377L59.5098 137.893C58.9785 138.709 58.1816 139.117 57.1191 139.117ZM56.9844 133.434C56.5469 133.434 56.1797 133.594 55.8828 133.914C55.5859 134.23 55.4023 134.676 55.332 135.25H58.5078V135.168C58.4766 134.617 58.3281 134.191 58.0625 133.891C57.7969 133.586 57.4375 133.434 56.9844 133.434ZM61.877 132.66L61.9121 133.457C62.3965 132.848 63.0293 132.543 63.8105 132.543C65.1504 132.543 65.8262 133.299 65.8379 134.811V139H64.7539V134.805C64.75 134.348 64.6445 134.01 64.4375 133.791C64.2344 133.572 63.916 133.463 63.4824 133.463C63.1309 133.463 62.8223 133.557 62.5566 133.744C62.291 133.932 62.084 134.178 61.9355 134.482V139H60.8516V132.66H61.877Z" fill="#686868"/>
<path d="M24.8633 157.25C24.6367 157.52 24.3652 157.736 24.0488 157.9C23.7363 158.064 23.3926 158.146 23.0176 158.146C22.5254 158.146 22.0957 158.025 21.7285 157.783C21.3652 157.541 21.084 157.201 20.8848 156.764C20.6855 156.322 20.5859 155.836 20.5859 155.305C20.5859 154.734 20.6934 154.221 20.9082 153.764C21.127 153.307 21.4355 152.957 21.834 152.715C22.2324 152.473 22.6973 152.352 23.2285 152.352C24.0723 152.352 24.7363 152.668 25.2207 153.301C25.709 153.93 25.9531 154.789 25.9531 155.879V156.195C25.9531 157.855 25.625 159.068 24.9688 159.834C24.3125 160.596 23.3223 160.986 21.998 161.006H21.7871V160.092H22.0156C22.9102 160.076 23.5977 159.844 24.0781 159.395C24.5586 158.941 24.8203 158.227 24.8633 157.25ZM23.1934 157.25C23.5566 157.25 23.8906 157.139 24.1953 156.916C24.5039 156.693 24.7285 156.418 24.8691 156.09V155.656C24.8691 154.945 24.7148 154.367 24.4062 153.922C24.0977 153.477 23.707 153.254 23.2344 153.254C22.7578 153.254 22.375 153.438 22.0859 153.805C21.7969 154.168 21.6523 154.648 21.6523 155.246C21.6523 155.828 21.791 156.309 22.0684 156.688C22.3496 157.062 22.7246 157.25 23.1934 157.25ZM31.7012 152.463V153.383H31.502C30.6582 153.398 29.9863 153.648 29.4863 154.133C28.9863 154.617 28.6973 155.299 28.6191 156.178C29.0684 155.662 29.6816 155.404 30.459 155.404C31.2012 155.404 31.793 155.666 32.2344 156.189C32.6797 156.713 32.9023 157.389 32.9023 158.217C32.9023 159.096 32.6621 159.799 32.1816 160.326C31.7051 160.854 31.0645 161.117 30.2598 161.117C29.4434 161.117 28.7812 160.805 28.2734 160.18C27.7656 159.551 27.5117 158.742 27.5117 157.754V157.338C27.5117 155.768 27.8457 154.568 28.5137 153.74C29.1855 152.908 30.1836 152.482 31.5078 152.463H31.7012ZM30.2773 156.307C29.9062 156.307 29.5645 156.418 29.252 156.641C28.9395 156.863 28.7227 157.143 28.6016 157.479V157.877C28.6016 158.58 28.7598 159.146 29.0762 159.576C29.3926 160.006 29.7871 160.221 30.2598 160.221C30.748 160.221 31.1309 160.041 31.4082 159.682C31.6895 159.322 31.8301 158.852 31.8301 158.27C31.8301 157.684 31.6875 157.211 31.4023 156.852C31.1211 156.488 30.7461 156.307 30.2773 156.307ZM39.2832 158.311L39.4473 159.436L39.6875 158.422L41.375 152.469H42.3242L43.9707 158.422L44.2051 159.453L44.3867 158.305L45.7109 152.469H46.8418L44.7734 161H43.748L41.9902 154.783L41.8555 154.133L41.7207 154.783L39.8984 161H38.873L36.8105 152.469H37.9355L39.2832 158.311ZM47.4512 157.771C47.4512 157.15 47.5723 156.592 47.8145 156.096C48.0605 155.6 48.4004 155.217 48.834 154.947C49.2715 154.678 49.7695 154.543 50.3281 154.543C51.1914 154.543 51.8887 154.842 52.4199 155.439C52.9551 156.037 53.2227 156.832 53.2227 157.824V157.9C53.2227 158.518 53.1035 159.072 52.8652 159.564C52.6309 160.053 52.293 160.434 51.8516 160.707C51.4141 160.98 50.9102 161.117 50.3398 161.117C49.4805 161.117 48.7832 160.818 48.248 160.221C47.7168 159.623 47.4512 158.832 47.4512 157.848V157.771ZM48.541 157.9C48.541 158.604 48.7031 159.168 49.0273 159.594C49.3555 160.02 49.793 160.232 50.3398 160.232C50.8906 160.232 51.3281 160.018 51.6523 159.588C51.9766 159.154 52.1387 158.549 52.1387 157.771C52.1387 157.076 51.9727 156.514 51.6406 156.084C51.3125 155.65 50.875 155.434 50.3281 155.434C49.793 155.434 49.3613 155.646 49.0332 156.072C48.7051 156.498 48.541 157.107 48.541 157.9ZM55.6016 154.66L55.6309 155.363C56.0957 154.816 56.7227 154.543 57.5117 154.543C58.3984 154.543 59.002 154.883 59.3223 155.562C59.5332 155.258 59.8066 155.012 60.1426 154.824C60.4824 154.637 60.8828 154.543 61.3438 154.543C62.7344 154.543 63.4414 155.279 63.4648 156.752V161H62.3809V156.816C62.3809 156.363 62.2773 156.025 62.0703 155.803C61.8633 155.576 61.5156 155.463 61.0273 155.463C60.625 155.463 60.291 155.584 60.0254 155.826C59.7598 156.064 59.6055 156.387 59.5625 156.793V161H58.4727V156.846C58.4727 155.924 58.0215 155.463 57.1191 155.463C56.4082 155.463 55.9219 155.766 55.6602 156.371V161H54.5762V154.66H55.6016ZM67.7363 161.117C66.877 161.117 66.1777 160.836 65.6387 160.273C65.0996 159.707 64.8301 158.951 64.8301 158.006V157.807C64.8301 157.178 64.9492 156.617 65.1875 156.125C65.4297 155.629 65.7656 155.242 66.1953 154.965C66.6289 154.684 67.0977 154.543 67.6016 154.543C68.4258 154.543 69.0664 154.814 69.5234 155.357C69.9805 155.9 70.209 156.678 70.209 157.689V158.141H65.9141C65.9297 158.766 66.1113 159.271 66.459 159.658C66.8105 160.041 67.2559 160.232 67.7949 160.232C68.1777 160.232 68.502 160.154 68.7676 159.998C69.0332 159.842 69.2656 159.635 69.4648 159.377L70.127 159.893C69.5957 160.709 68.7988 161.117 67.7363 161.117ZM67.6016 155.434C67.1641 155.434 66.7969 155.594 66.5 155.914C66.2031 156.23 66.0195 156.676 65.9492 157.25H69.125V157.168C69.0938 156.617 68.9453 156.191 68.6797 155.891C68.4141 155.586 68.0547 155.434 67.6016 155.434ZM72.4941 154.66L72.5293 155.457C73.0137 154.848 73.6465 154.543 74.4277 154.543C75.7676 154.543 76.4434 155.299 76.4551 156.811V161H75.3711V156.805C75.3672 156.348 75.2617 156.01 75.0547 155.791C74.8516 155.572 74.5332 155.463 74.0996 155.463C73.748 155.463 73.4395 155.557 73.1738 155.744C72.9082 155.932 72.7012 156.178 72.5527 156.482V161H71.4688V154.66H72.4941Z" fill="#686868"/>
<path d="M177 83.5C177 83.5 192.282 65.2086 206 62.5C216.431 60.4403 222.488 67.5924 233 66C249.278 63.5342 252.396 45.9209 268.5 42.5C277.477 40.5931 291.5 42.5 291.5 42.5" stroke="#FF5151" stroke-width="2" stroke-linecap="round"/>
<path d="M206.5 62.3475C192.782 65.0562 177.5 83.3475 177.5 83.3475V110.5H292V42.3475C292 42.3475 277.977 40.4406 269 42.3475C252.896 45.7685 249.778 63.3817 233.5 65.8475C222.988 67.4399 216.931 60.2878 206.5 62.3475Z" fill="url(#paint0_linear_244_1000)"/>
<path d="M222.28 41.17C222.213 41.17 222.157 41.1467 222.11 41.1C222.063 41.0533 222.04 40.9967 222.04 40.93V38.98H220.12C220.053 38.98 219.997 38.9567 219.95 38.91C219.903 38.8633 219.88 38.8033 219.88 38.73V38.21C219.88 38.1367 219.903 38.08 219.95 38.04C219.997 37.9933 220.053 37.97 220.12 37.97H222.04V36.07C222.04 35.9967 222.063 35.94 222.11 35.9C222.157 35.8533 222.213 35.83 222.28 35.83H222.86C222.933 35.83 222.99 35.8533 223.03 35.9C223.077 35.94 223.1 35.9967 223.1 36.07V37.97H225.02C225.093 37.97 225.15 37.9933 225.19 38.04C225.237 38.08 225.26 38.1367 225.26 38.21V38.73C225.26 38.8033 225.237 38.8633 225.19 38.91C225.143 38.9567 225.087 38.98 225.02 38.98H223.1V40.93C223.1 40.9967 223.077 41.0533 223.03 41.1C222.99 41.1467 222.933 41.17 222.86 41.17H222.28ZM226.108 41.5C226.041 41.5 225.985 41.4767 225.938 41.43C225.891 41.3833 225.868 41.3267 225.868 41.26V40.75C225.868 40.57 225.951 40.4133 226.118 40.28L227.698 38.71C228.385 38.17 228.861 37.75 229.128 37.45C229.401 37.1433 229.538 36.8433 229.538 36.55C229.538 36.2367 229.451 35.99 229.278 35.81C229.111 35.63 228.858 35.54 228.518 35.54C228.185 35.54 227.921 35.64 227.728 35.84C227.535 36.0333 227.415 36.2867 227.368 36.6C227.348 36.68 227.311 36.74 227.258 36.78C227.205 36.8133 227.145 36.83 227.078 36.83H226.188C226.128 36.83 226.078 36.81 226.038 36.77C225.998 36.73 225.978 36.6833 225.978 36.63C225.991 36.2367 226.098 35.87 226.298 35.53C226.498 35.1833 226.788 34.9067 227.168 34.7C227.548 34.4867 227.995 34.38 228.508 34.38C229.041 34.38 229.491 34.4733 229.858 34.66C230.231 34.84 230.511 35.09 230.698 35.41C230.885 35.73 230.978 36.0933 230.978 36.5C230.978 36.9467 230.851 37.35 230.598 37.71C230.351 38.07 229.971 38.4567 229.458 38.87L228.038 40.31H230.888C230.961 40.31 231.018 40.3333 231.058 40.38C231.105 40.42 231.128 40.4767 231.128 40.55V41.26C231.128 41.3267 231.105 41.3833 231.058 41.43C231.018 41.4767 230.961 41.5 230.888 41.5H226.108ZM233.529 38.02C233.089 38.02 232.736 37.9033 232.469 37.67C232.209 37.4367 232.066 37.12 232.039 36.72C232.033 36.6067 232.029 36.4567 232.029 36.27C232.029 36.07 232.033 35.91 232.039 35.79C232.066 35.3767 232.206 35.05 232.459 34.81C232.713 34.57 233.069 34.45 233.529 34.45C233.989 34.45 234.346 34.57 234.599 34.81C234.859 35.05 234.999 35.3767 235.019 35.79C235.033 36.0567 235.039 36.23 235.039 36.31C235.039 36.3833 235.033 36.52 235.019 36.72C234.999 37.12 234.856 37.4367 234.589 37.67C234.329 37.9033 233.976 38.02 233.529 38.02ZM232.709 41.5C232.649 41.5 232.599 41.4833 232.559 41.45C232.519 41.41 232.499 41.36 232.499 41.3C232.499 41.26 232.513 41.2233 232.539 41.19L237.469 34.69C237.523 34.6233 237.573 34.5767 237.619 34.55C237.666 34.5167 237.729 34.5 237.809 34.5H238.339C238.406 34.5 238.456 34.52 238.489 34.56C238.529 34.5933 238.549 34.64 238.549 34.7C238.549 34.74 238.536 34.7767 238.509 34.81L233.579 41.31C233.526 41.3767 233.476 41.4267 233.429 41.46C233.383 41.4867 233.319 41.5 233.239 41.5H232.709ZM233.529 37.28C233.723 37.28 233.866 37.2233 233.959 37.11C234.053 36.99 234.106 36.8433 234.119 36.67C234.133 36.4433 234.139 36.3033 234.139 36.25C234.139 36.1767 234.133 36.04 234.119 35.84C234.113 35.6667 234.059 35.5233 233.959 35.41C233.866 35.29 233.723 35.23 233.529 35.23C233.336 35.23 233.193 35.29 233.099 35.41C233.006 35.5233 232.956 35.6667 232.949 35.84C232.943 35.94 232.939 36.0767 232.939 36.25C232.939 36.4167 232.943 36.5567 232.949 36.67C232.963 36.8433 233.013 36.99 233.099 37.11C233.193 37.2233 233.336 37.28 233.529 37.28ZM237.519 41.56C237.079 41.56 236.726 41.44 236.459 41.2C236.199 40.9533 236.056 40.6267 236.029 40.22C236.023 40.1067 236.019 39.9567 236.019 39.77C236.019 39.5767 236.023 39.42 236.029 39.3C236.056 38.8867 236.196 38.56 236.449 38.32C236.703 38.08 237.059 37.96 237.519 37.96C237.979 37.96 238.336 38.08 238.589 38.32C238.849 38.56 238.989 38.8867 239.009 39.3C239.023 39.5667 239.029 39.7367 239.029 39.81C239.029 39.8833 239.023 40.02 239.009 40.22C238.983 40.6267 238.836 40.9533 238.569 41.2C238.309 41.44 237.959 41.56 237.519 41.56ZM237.519 40.78C237.719 40.78 237.863 40.7233 237.949 40.61C238.043 40.49 238.096 40.3467 238.109 40.18C238.123 39.9533 238.129 39.8133 238.129 39.76C238.129 39.6867 238.123 39.55 238.109 39.35C238.103 39.1767 238.049 39.03 237.949 38.91C237.856 38.79 237.713 38.73 237.519 38.73C237.326 38.73 237.183 38.79 237.089 38.91C236.996 39.0233 236.943 39.17 236.929 39.35C236.923 39.45 236.919 39.5867 236.919 39.76C236.919 39.9267 236.923 40.0667 236.929 40.18C236.949 40.3533 237.003 40.4967 237.089 40.61C237.183 40.7233 237.326 40.78 237.519 40.78Z" fill="#FF5151"/>
<path d="M228.5 49.5L230.5 47.5M230.5 47.5L232.5 49.5M230.5 47.5V54.5" stroke="#FF5151" stroke-linecap="round" stroke-linejoin="round"/>
<rect x="185" y="130.5" width="107" height="24" rx="4" fill="#FFEFE7"/>
<path d="M198.926 141.924H201.305V142.949H198.926V145.645H197.836V142.949H195.457V141.924H197.836V139.434H198.926V141.924ZM208.107 146.5H202.518V145.721L205.471 142.439C205.908 141.943 206.209 141.541 206.373 141.232C206.541 140.92 206.625 140.598 206.625 140.266C206.625 139.82 206.49 139.455 206.221 139.17C205.951 138.885 205.592 138.742 205.143 138.742C204.604 138.742 204.184 138.896 203.883 139.205C203.586 139.51 203.438 139.936 203.438 140.482H202.354C202.354 139.697 202.605 139.062 203.109 138.578C203.617 138.094 204.295 137.852 205.143 137.852C205.936 137.852 206.562 138.061 207.023 138.479C207.484 138.893 207.715 139.445 207.715 140.137C207.715 140.977 207.18 141.977 206.109 143.137L203.824 145.615H208.107V146.5ZM209.162 139.609C209.162 139.098 209.324 138.676 209.648 138.344C209.977 138.012 210.396 137.846 210.908 137.846C211.428 137.846 211.848 138.014 212.168 138.35C212.492 138.682 212.654 139.113 212.654 139.645V140.061C212.654 140.576 212.49 140.998 212.162 141.326C211.838 141.65 211.424 141.812 210.92 141.812C210.412 141.812 209.992 141.65 209.66 141.326C209.328 140.998 209.162 140.562 209.162 140.02V139.609ZM209.971 140.061C209.971 140.365 210.057 140.617 210.229 140.816C210.4 141.012 210.631 141.109 210.92 141.109C211.197 141.109 211.42 141.014 211.588 140.822C211.76 140.631 211.846 140.369 211.846 140.037V139.609C211.846 139.305 211.762 139.053 211.594 138.854C211.426 138.654 211.197 138.555 210.908 138.555C210.619 138.555 210.391 138.654 210.223 138.854C210.055 139.053 209.971 139.312 209.971 139.633V140.061ZM213.316 144.408C213.316 143.896 213.479 143.477 213.803 143.148C214.131 142.816 214.551 142.65 215.062 142.65C215.574 142.65 215.994 142.814 216.322 143.143C216.65 143.471 216.814 143.906 216.814 144.449V144.865C216.814 145.377 216.65 145.799 216.322 146.131C215.998 146.459 215.582 146.623 215.074 146.623C214.566 146.623 214.146 146.461 213.814 146.137C213.482 145.809 213.316 145.373 213.316 144.83V144.408ZM214.125 144.865C214.125 145.174 214.211 145.428 214.383 145.627C214.555 145.822 214.785 145.92 215.074 145.92C215.355 145.92 215.58 145.824 215.748 145.633C215.916 145.438 216 145.174 216 144.842V144.408C216 144.1 215.914 143.848 215.742 143.652C215.574 143.457 215.348 143.359 215.062 143.359C214.785 143.359 214.559 143.457 214.383 143.652C214.211 143.844 214.125 144.104 214.125 144.432V144.865ZM211.166 145.855L210.551 145.469L214.717 138.801L215.332 139.188L211.166 145.855ZM222.428 143.16V146.5H221.303V137.969H224.449C225.383 137.969 226.113 138.207 226.641 138.684C227.172 139.16 227.438 139.791 227.438 140.576C227.438 141.404 227.178 142.043 226.658 142.492C226.143 142.938 225.402 143.16 224.438 143.16H222.428ZM222.428 142.24H224.449C225.051 142.24 225.512 142.1 225.832 141.818C226.152 141.533 226.312 141.123 226.312 140.588C226.312 140.08 226.152 139.674 225.832 139.369C225.512 139.064 225.072 138.906 224.514 138.895H222.428V142.24ZM232.547 146.5C232.484 146.375 232.434 146.152 232.395 145.832C231.891 146.355 231.289 146.617 230.59 146.617C229.965 146.617 229.451 146.441 229.049 146.09C228.65 145.734 228.451 145.285 228.451 144.742C228.451 144.082 228.701 143.57 229.201 143.207C229.705 142.84 230.412 142.656 231.322 142.656H232.377V142.158C232.377 141.779 232.264 141.479 232.037 141.256C231.811 141.029 231.477 140.916 231.035 140.916C230.648 140.916 230.324 141.014 230.062 141.209C229.801 141.404 229.67 141.641 229.67 141.918H228.58C228.58 141.602 228.691 141.297 228.914 141.004C229.141 140.707 229.445 140.473 229.828 140.301C230.215 140.129 230.639 140.043 231.1 140.043C231.83 140.043 232.402 140.227 232.816 140.594C233.23 140.957 233.445 141.459 233.461 142.1V145.018C233.461 145.6 233.535 146.062 233.684 146.406V146.5H232.547ZM230.748 145.674C231.088 145.674 231.41 145.586 231.715 145.41C232.02 145.234 232.24 145.006 232.377 144.725V143.424H231.527C230.199 143.424 229.535 143.812 229.535 144.59C229.535 144.93 229.648 145.195 229.875 145.387C230.102 145.578 230.393 145.674 230.748 145.674ZM238.852 144.818C238.852 144.525 238.74 144.299 238.518 144.139C238.299 143.975 237.914 143.834 237.363 143.717C236.816 143.6 236.381 143.459 236.057 143.295C235.736 143.131 235.498 142.936 235.342 142.709C235.189 142.482 235.113 142.213 235.113 141.9C235.113 141.381 235.332 140.941 235.77 140.582C236.211 140.223 236.773 140.043 237.457 140.043C238.176 140.043 238.758 140.229 239.203 140.6C239.652 140.971 239.877 141.445 239.877 142.023H238.787C238.787 141.727 238.66 141.471 238.406 141.256C238.156 141.041 237.84 140.934 237.457 140.934C237.062 140.934 236.754 141.02 236.531 141.191C236.309 141.363 236.197 141.588 236.197 141.865C236.197 142.127 236.301 142.324 236.508 142.457C236.715 142.59 237.088 142.717 237.627 142.838C238.17 142.959 238.609 143.104 238.945 143.271C239.281 143.439 239.529 143.643 239.689 143.881C239.854 144.115 239.936 144.402 239.936 144.742C239.936 145.309 239.709 145.764 239.256 146.107C238.803 146.447 238.215 146.617 237.492 146.617C236.984 146.617 236.535 146.527 236.145 146.348C235.754 146.168 235.447 145.918 235.225 145.598C235.006 145.273 234.896 144.924 234.896 144.549H235.98C236 144.912 236.145 145.201 236.414 145.416C236.688 145.627 237.047 145.732 237.492 145.732C237.902 145.732 238.23 145.65 238.477 145.486C238.727 145.318 238.852 145.096 238.852 144.818ZM242.818 138.625V140.16H244.002V140.998H242.818V144.93C242.818 145.184 242.871 145.375 242.977 145.504C243.082 145.629 243.262 145.691 243.516 145.691C243.641 145.691 243.812 145.668 244.031 145.621V146.5C243.746 146.578 243.469 146.617 243.199 146.617C242.715 146.617 242.35 146.471 242.104 146.178C241.857 145.885 241.734 145.469 241.734 144.93V140.998H240.58V140.16H241.734V138.625H242.818ZM249.27 140.16L249.299 140.863C249.764 140.316 250.391 140.043 251.18 140.043C252.066 140.043 252.67 140.383 252.99 141.062C253.201 140.758 253.475 140.512 253.811 140.324C254.15 140.137 254.551 140.043 255.012 140.043C256.402 140.043 257.109 140.779 257.133 142.252V146.5H256.049V142.316C256.049 141.863 255.945 141.525 255.738 141.303C255.531 141.076 255.184 140.963 254.695 140.963C254.293 140.963 253.959 141.084 253.693 141.326C253.428 141.564 253.273 141.887 253.23 142.293V146.5H252.141V142.346C252.141 141.424 251.689 140.963 250.787 140.963C250.076 140.963 249.59 141.266 249.328 141.871V146.5H248.244V140.16H249.27ZM258.486 143.271C258.486 142.65 258.607 142.092 258.85 141.596C259.096 141.1 259.436 140.717 259.869 140.447C260.307 140.178 260.805 140.043 261.363 140.043C262.227 140.043 262.924 140.342 263.455 140.939C263.99 141.537 264.258 142.332 264.258 143.324V143.4C264.258 144.018 264.139 144.572 263.9 145.064C263.666 145.553 263.328 145.934 262.887 146.207C262.449 146.48 261.945 146.617 261.375 146.617C260.516 146.617 259.818 146.318 259.283 145.721C258.752 145.123 258.486 144.332 258.486 143.348V143.271ZM259.576 143.4C259.576 144.104 259.738 144.668 260.062 145.094C260.391 145.52 260.828 145.732 261.375 145.732C261.926 145.732 262.363 145.518 262.688 145.088C263.012 144.654 263.174 144.049 263.174 143.271C263.174 142.576 263.008 142.014 262.676 141.584C262.348 141.15 261.91 140.934 261.363 140.934C260.828 140.934 260.396 141.146 260.068 141.572C259.74 141.998 259.576 142.607 259.576 143.4ZM266.643 140.16L266.678 140.957C267.162 140.348 267.795 140.043 268.576 140.043C269.916 140.043 270.592 140.799 270.604 142.311V146.5H269.52V142.305C269.516 141.848 269.41 141.51 269.203 141.291C269 141.072 268.682 140.963 268.248 140.963C267.896 140.963 267.588 141.057 267.322 141.244C267.057 141.432 266.85 141.678 266.701 141.982V146.5H265.617V140.16H266.643ZM273.709 138.625V140.16H274.893V140.998H273.709V144.93C273.709 145.184 273.762 145.375 273.867 145.504C273.973 145.629 274.152 145.691 274.406 145.691C274.531 145.691 274.703 145.668 274.922 145.621V146.5C274.637 146.578 274.359 146.617 274.09 146.617C273.605 146.617 273.24 146.471 272.994 146.178C272.748 145.885 272.625 145.469 272.625 144.93V140.998H271.471V140.16H272.625V138.625H273.709ZM277.248 140.928C277.729 140.338 278.354 140.043 279.123 140.043C280.463 140.043 281.139 140.799 281.15 142.311V146.5H280.066V142.305C280.062 141.848 279.957 141.51 279.75 141.291C279.547 141.072 279.229 140.963 278.795 140.963C278.443 140.963 278.135 141.057 277.869 141.244C277.604 141.432 277.396 141.678 277.248 141.982V146.5H276.164V137.5H277.248V140.928Z" fill="#303030"/>
<rect x="0.5" y="0.5" width="311" height="185" rx="9.5" stroke="#E0E0E0"/>
<defs>
<linearGradient id="paint0_linear_244_1000" x1="213" y1="21.5" x2="237.5" y2="84" gradientUnits="userSpaceOnUse">
<stop stop-color="#FF5151"/>
<stop offset="1" stop-color="white" stop-opacity="0"/>
</linearGradient>
</defs>
</svg>
